G04 #@! TF.GenerationSoftware,KiCad,Pcbnew,no-vcs-found-5013ea2~58~ubuntu16.04.1*
G04 #@! TF.CreationDate,2017-05-24T10:35:15-06:00*
G04 #@! TF.ProjectId,HiBeam_4-pack_v02,48694265616D5F342D7061636B5F7630,rev?*
G04 #@! TF.FileFunction,Legend,Bot*
G04 #@! TF.FilePolarity,Positive*
%FSLAX46Y46*%
G04 Gerber Fmt 4.6, Leading zero omitted, Abs format (unit mm)*
G04 Created by KiCad (PCBNEW no-vcs-found-5013ea2~58~ubuntu16.04.1) date Wed May 24 10:35:15 2017*
%MOMM*%
%LPD*%
G01*
G04 APERTURE LIST*
%ADD10C,0.100000*%
%ADD11C,0.203200*%
%ADD12C,0.010000*%
G04 APERTURE END LIST*
D10*
D11*
X152212523Y-93296619D02*
X152212523Y-92280619D01*
X152212523Y-92764428D02*
X151631952Y-92764428D01*
X151631952Y-93296619D02*
X151631952Y-92280619D01*
X151148142Y-93296619D02*
X151148142Y-92619285D01*
X151148142Y-92280619D02*
X151196523Y-92329000D01*
X151148142Y-92377380D01*
X151099761Y-92329000D01*
X151148142Y-92280619D01*
X151148142Y-92377380D01*
X150325666Y-92764428D02*
X150180523Y-92812809D01*
X150132142Y-92861190D01*
X150083761Y-92957952D01*
X150083761Y-93103095D01*
X150132142Y-93199857D01*
X150180523Y-93248238D01*
X150277285Y-93296619D01*
X150664333Y-93296619D01*
X150664333Y-92280619D01*
X150325666Y-92280619D01*
X150228904Y-92329000D01*
X150180523Y-92377380D01*
X150132142Y-92474142D01*
X150132142Y-92570904D01*
X150180523Y-92667666D01*
X150228904Y-92716047D01*
X150325666Y-92764428D01*
X150664333Y-92764428D01*
X149261285Y-93248238D02*
X149358047Y-93296619D01*
X149551571Y-93296619D01*
X149648333Y-93248238D01*
X149696714Y-93151476D01*
X149696714Y-92764428D01*
X149648333Y-92667666D01*
X149551571Y-92619285D01*
X149358047Y-92619285D01*
X149261285Y-92667666D01*
X149212904Y-92764428D01*
X149212904Y-92861190D01*
X149696714Y-92957952D01*
X148342047Y-93296619D02*
X148342047Y-92764428D01*
X148390428Y-92667666D01*
X148487190Y-92619285D01*
X148680714Y-92619285D01*
X148777476Y-92667666D01*
X148342047Y-93248238D02*
X148438809Y-93296619D01*
X148680714Y-93296619D01*
X148777476Y-93248238D01*
X148825857Y-93151476D01*
X148825857Y-93054714D01*
X148777476Y-92957952D01*
X148680714Y-92909571D01*
X148438809Y-92909571D01*
X148342047Y-92861190D01*
X147858238Y-93296619D02*
X147858238Y-92619285D01*
X147858238Y-92716047D02*
X147809857Y-92667666D01*
X147713095Y-92619285D01*
X147567952Y-92619285D01*
X147471190Y-92667666D01*
X147422809Y-92764428D01*
X147422809Y-93296619D01*
X147422809Y-92764428D02*
X147374428Y-92667666D01*
X147277666Y-92619285D01*
X147132523Y-92619285D01*
X147035761Y-92667666D01*
X146987380Y-92764428D01*
X146987380Y-93296619D01*
X146551952Y-93248238D02*
X146455190Y-93296619D01*
X146261666Y-93296619D01*
X146164904Y-93248238D01*
X146116523Y-93151476D01*
X146116523Y-93103095D01*
X146164904Y-93006333D01*
X146261666Y-92957952D01*
X146406809Y-92957952D01*
X146503571Y-92909571D01*
X146551952Y-92812809D01*
X146551952Y-92764428D01*
X146503571Y-92667666D01*
X146406809Y-92619285D01*
X146261666Y-92619285D01*
X146164904Y-92667666D01*
X144471571Y-92619285D02*
X144471571Y-93296619D01*
X144713476Y-92232238D02*
X144955380Y-92957952D01*
X144326428Y-92957952D01*
X143939380Y-92909571D02*
X143165285Y-92909571D01*
X142681476Y-92619285D02*
X142681476Y-93635285D01*
X142681476Y-92667666D02*
X142584714Y-92619285D01*
X142391190Y-92619285D01*
X142294428Y-92667666D01*
X142246047Y-92716047D01*
X142197666Y-92812809D01*
X142197666Y-93103095D01*
X142246047Y-93199857D01*
X142294428Y-93248238D01*
X142391190Y-93296619D01*
X142584714Y-93296619D01*
X142681476Y-93248238D01*
X141326809Y-93296619D02*
X141326809Y-92764428D01*
X141375190Y-92667666D01*
X141471952Y-92619285D01*
X141665476Y-92619285D01*
X141762238Y-92667666D01*
X141326809Y-93248238D02*
X141423571Y-93296619D01*
X141665476Y-93296619D01*
X141762238Y-93248238D01*
X141810619Y-93151476D01*
X141810619Y-93054714D01*
X141762238Y-92957952D01*
X141665476Y-92909571D01*
X141423571Y-92909571D01*
X141326809Y-92861190D01*
X140407571Y-93248238D02*
X140504333Y-93296619D01*
X140697857Y-93296619D01*
X140794619Y-93248238D01*
X140843000Y-93199857D01*
X140891380Y-93103095D01*
X140891380Y-92812809D01*
X140843000Y-92716047D01*
X140794619Y-92667666D01*
X140697857Y-92619285D01*
X140504333Y-92619285D01*
X140407571Y-92667666D01*
X139972142Y-93296619D02*
X139972142Y-92280619D01*
X139875380Y-92909571D02*
X139585095Y-93296619D01*
X139585095Y-92619285D02*
X139972142Y-93006333D01*
X155780619Y-95340714D02*
X154764619Y-95340714D01*
X154764619Y-95582619D01*
X154813000Y-95727761D01*
X154909761Y-95824523D01*
X155006523Y-95872904D01*
X155200047Y-95921285D01*
X155345190Y-95921285D01*
X155538714Y-95872904D01*
X155635476Y-95824523D01*
X155732238Y-95727761D01*
X155780619Y-95582619D01*
X155780619Y-95340714D01*
X154764619Y-96550238D02*
X154764619Y-96743761D01*
X154813000Y-96840523D01*
X154909761Y-96937285D01*
X155103285Y-96985666D01*
X155441952Y-96985666D01*
X155635476Y-96937285D01*
X155732238Y-96840523D01*
X155780619Y-96743761D01*
X155780619Y-96550238D01*
X155732238Y-96453476D01*
X155635476Y-96356714D01*
X155441952Y-96308333D01*
X155103285Y-96308333D01*
X154909761Y-96356714D01*
X154813000Y-96453476D01*
X154764619Y-96550238D01*
X153270857Y-95921285D02*
X153319238Y-95872904D01*
X153367619Y-95727761D01*
X153367619Y-95631000D01*
X153319238Y-95485857D01*
X153222476Y-95389095D01*
X153125714Y-95340714D01*
X152932190Y-95292333D01*
X152787047Y-95292333D01*
X152593523Y-95340714D01*
X152496761Y-95389095D01*
X152400000Y-95485857D01*
X152351619Y-95631000D01*
X152351619Y-95727761D01*
X152400000Y-95872904D01*
X152448380Y-95921285D01*
X152351619Y-96550238D02*
X152351619Y-96743761D01*
X152400000Y-96840523D01*
X152496761Y-96937285D01*
X152690285Y-96985666D01*
X153028952Y-96985666D01*
X153222476Y-96937285D01*
X153319238Y-96840523D01*
X153367619Y-96743761D01*
X153367619Y-96550238D01*
X153319238Y-96453476D01*
X153222476Y-96356714D01*
X153028952Y-96308333D01*
X152690285Y-96308333D01*
X152496761Y-96356714D01*
X152400000Y-96453476D01*
X152351619Y-96550238D01*
X154608209Y-103597789D02*
X153889789Y-102879369D01*
X153718737Y-103050421D01*
X153650316Y-103187263D01*
X153650316Y-103324105D01*
X153684526Y-103426737D01*
X153787158Y-103597789D01*
X153889789Y-103700420D01*
X154060841Y-103803052D01*
X154163473Y-103837262D01*
X154300315Y-103837262D01*
X154437157Y-103768841D01*
X154608209Y-103597789D01*
X153889789Y-104316209D02*
X153171369Y-103597789D01*
X152351262Y-102161894D02*
X152419683Y-102161894D01*
X152556525Y-102093473D01*
X152624946Y-102025052D01*
X152693367Y-101888210D01*
X152693367Y-101751368D01*
X152659157Y-101648737D01*
X152556525Y-101477684D01*
X152453894Y-101375053D01*
X152282841Y-101272421D01*
X152180210Y-101238211D01*
X152043368Y-101238211D01*
X151906526Y-101306632D01*
X151838105Y-101375053D01*
X151769684Y-101511895D01*
X151769684Y-101580316D01*
X152111789Y-102538209D02*
X151393369Y-101819789D01*
X142179523Y-106174419D02*
X142663333Y-106174419D01*
X142711714Y-106658228D01*
X142663333Y-106609847D01*
X142566571Y-106561466D01*
X142324666Y-106561466D01*
X142227904Y-106609847D01*
X142179523Y-106658228D01*
X142131142Y-106754990D01*
X142131142Y-106996895D01*
X142179523Y-107093657D01*
X142227904Y-107142038D01*
X142324666Y-107190419D01*
X142566571Y-107190419D01*
X142663333Y-107142038D01*
X142711714Y-107093657D01*
X141840857Y-106174419D02*
X141502190Y-107190419D01*
X141163523Y-106174419D01*
X142125095Y-103022400D02*
X142221857Y-102974019D01*
X142367000Y-102974019D01*
X142512142Y-103022400D01*
X142608904Y-103119161D01*
X142657285Y-103215923D01*
X142705666Y-103409447D01*
X142705666Y-103554590D01*
X142657285Y-103748114D01*
X142608904Y-103844876D01*
X142512142Y-103941638D01*
X142367000Y-103990019D01*
X142270238Y-103990019D01*
X142125095Y-103941638D01*
X142076714Y-103893257D01*
X142076714Y-103554590D01*
X142270238Y-103554590D01*
X141641285Y-103990019D02*
X141641285Y-102974019D01*
X141060714Y-103990019D01*
X141060714Y-102974019D01*
X140576904Y-103990019D02*
X140576904Y-102974019D01*
X140335000Y-102974019D01*
X140189857Y-103022400D01*
X140093095Y-103119161D01*
X140044714Y-103215923D01*
X139996333Y-103409447D01*
X139996333Y-103554590D01*
X140044714Y-103748114D01*
X140093095Y-103844876D01*
X140189857Y-103941638D01*
X140335000Y-103990019D01*
X140576904Y-103990019D01*
D12*
G36*
X141823440Y-89443560D02*
X141462760Y-89443560D01*
X141462760Y-89644220D01*
X141452600Y-89644220D01*
X141414500Y-89583260D01*
X141373860Y-89532460D01*
X141312900Y-89494360D01*
X141262100Y-89463880D01*
X141203680Y-89443560D01*
X141142720Y-89423240D01*
X141084300Y-89413080D01*
X141023340Y-89402920D01*
X140883640Y-89423240D01*
X140764260Y-89453720D01*
X140672820Y-89504520D01*
X140614400Y-89562940D01*
X140563600Y-89654380D01*
X140522960Y-89753440D01*
X140512800Y-89862660D01*
X140502640Y-89992200D01*
X140502640Y-90863420D01*
X140893800Y-90863420D01*
X140893800Y-89982040D01*
X140903960Y-89913460D01*
X140924280Y-89852500D01*
X140952220Y-89804240D01*
X140982700Y-89763600D01*
X141023340Y-89733120D01*
X141084300Y-89722960D01*
X141142720Y-89712800D01*
X141213840Y-89722960D01*
X141282420Y-89733120D01*
X141333220Y-89763600D01*
X141373860Y-89814400D01*
X141404340Y-89862660D01*
X141422120Y-89933780D01*
X141442440Y-90022680D01*
X141442440Y-90863420D01*
X141833600Y-90863420D01*
X141833600Y-89623900D01*
X141823440Y-89443560D01*
G37*
X141823440Y-89443560D02*
X141462760Y-89443560D01*
X141462760Y-89644220D01*
X141452600Y-89644220D01*
X141414500Y-89583260D01*
X141373860Y-89532460D01*
X141312900Y-89494360D01*
X141262100Y-89463880D01*
X141203680Y-89443560D01*
X141142720Y-89423240D01*
X141084300Y-89413080D01*
X141023340Y-89402920D01*
X140883640Y-89423240D01*
X140764260Y-89453720D01*
X140672820Y-89504520D01*
X140614400Y-89562940D01*
X140563600Y-89654380D01*
X140522960Y-89753440D01*
X140512800Y-89862660D01*
X140502640Y-89992200D01*
X140502640Y-90863420D01*
X140893800Y-90863420D01*
X140893800Y-89982040D01*
X140903960Y-89913460D01*
X140924280Y-89852500D01*
X140952220Y-89804240D01*
X140982700Y-89763600D01*
X141023340Y-89733120D01*
X141084300Y-89722960D01*
X141142720Y-89712800D01*
X141213840Y-89722960D01*
X141282420Y-89733120D01*
X141333220Y-89763600D01*
X141373860Y-89814400D01*
X141404340Y-89862660D01*
X141422120Y-89933780D01*
X141442440Y-90022680D01*
X141442440Y-90863420D01*
X141833600Y-90863420D01*
X141833600Y-89623900D01*
X141823440Y-89443560D01*
G36*
X142044420Y-90863420D02*
X142412720Y-90863420D01*
X142412720Y-90662760D01*
X142453360Y-90723720D01*
X142504160Y-90764360D01*
X142552420Y-90812620D01*
X142603220Y-90843100D01*
X142664180Y-90863420D01*
X142722600Y-90883740D01*
X142783560Y-90893900D01*
X142852140Y-90904060D01*
X142994380Y-90883740D01*
X143103600Y-90853260D01*
X143192500Y-90802460D01*
X143263620Y-90744040D01*
X143314420Y-90652600D01*
X143342360Y-90553540D01*
X143362680Y-90444320D01*
X143362680Y-89443560D01*
X142974060Y-89443560D01*
X142974060Y-90322400D01*
X142963900Y-90393520D01*
X142943580Y-90454480D01*
X142923260Y-90502740D01*
X142882620Y-90543380D01*
X142844520Y-90573860D01*
X142793720Y-90584020D01*
X142722600Y-90594180D01*
X142654020Y-90584020D01*
X142593060Y-90573860D01*
X142542260Y-90543380D01*
X142494000Y-90492580D01*
X142463520Y-90444320D01*
X142443200Y-90373200D01*
X142433040Y-90284300D01*
X142422880Y-90182700D01*
X142422880Y-89443560D01*
X142044420Y-89443560D01*
X142044420Y-90683080D01*
X142044420Y-90863420D01*
G37*
X142044420Y-90863420D02*
X142412720Y-90863420D01*
X142412720Y-90662760D01*
X142453360Y-90723720D01*
X142504160Y-90764360D01*
X142552420Y-90812620D01*
X142603220Y-90843100D01*
X142664180Y-90863420D01*
X142722600Y-90883740D01*
X142783560Y-90893900D01*
X142852140Y-90904060D01*
X142994380Y-90883740D01*
X143103600Y-90853260D01*
X143192500Y-90802460D01*
X143263620Y-90744040D01*
X143314420Y-90652600D01*
X143342360Y-90553540D01*
X143362680Y-90444320D01*
X143362680Y-89443560D01*
X142974060Y-89443560D01*
X142974060Y-90322400D01*
X142963900Y-90393520D01*
X142943580Y-90454480D01*
X142923260Y-90502740D01*
X142882620Y-90543380D01*
X142844520Y-90573860D01*
X142793720Y-90584020D01*
X142722600Y-90594180D01*
X142654020Y-90584020D01*
X142593060Y-90573860D01*
X142542260Y-90543380D01*
X142494000Y-90492580D01*
X142463520Y-90444320D01*
X142443200Y-90373200D01*
X142433040Y-90284300D01*
X142422880Y-90182700D01*
X142422880Y-89443560D01*
X142044420Y-89443560D01*
X142044420Y-90683080D01*
X142044420Y-90863420D01*
G36*
X144132300Y-89702640D02*
X144513300Y-89702640D01*
X144482820Y-89672160D01*
X144452340Y-89644220D01*
X144414240Y-89613740D01*
X144383760Y-89573100D01*
X144353280Y-89542620D01*
X144322800Y-89512140D01*
X144282160Y-89484200D01*
X144254220Y-89443560D01*
X144132300Y-89443560D01*
X144132300Y-89334340D01*
X144122140Y-89242900D01*
X144104360Y-89164160D01*
X144063720Y-89093040D01*
X144012920Y-89032080D01*
X143954500Y-88973660D01*
X143873220Y-88943180D01*
X143774160Y-88912700D01*
X143662400Y-88902540D01*
X143583660Y-88902540D01*
X143553180Y-88912700D01*
X143454120Y-88912700D01*
X143454120Y-89202260D01*
X143634460Y-89202260D01*
X143662400Y-89212420D01*
X143692880Y-89222580D01*
X143713200Y-89232740D01*
X143723360Y-89263220D01*
X143733520Y-89283540D01*
X143743680Y-89324180D01*
X143743680Y-89443560D01*
X143474440Y-89443560D01*
X143474440Y-89702640D01*
X143743680Y-89702640D01*
X143743680Y-90863420D01*
X144132300Y-90863420D01*
X144132300Y-89852500D01*
X144132300Y-89702640D01*
G37*
X144132300Y-89702640D02*
X144513300Y-89702640D01*
X144482820Y-89672160D01*
X144452340Y-89644220D01*
X144414240Y-89613740D01*
X144383760Y-89573100D01*
X144353280Y-89542620D01*
X144322800Y-89512140D01*
X144282160Y-89484200D01*
X144254220Y-89443560D01*
X144132300Y-89443560D01*
X144132300Y-89334340D01*
X144122140Y-89242900D01*
X144104360Y-89164160D01*
X144063720Y-89093040D01*
X144012920Y-89032080D01*
X143954500Y-88973660D01*
X143873220Y-88943180D01*
X143774160Y-88912700D01*
X143662400Y-88902540D01*
X143583660Y-88902540D01*
X143553180Y-88912700D01*
X143454120Y-88912700D01*
X143454120Y-89202260D01*
X143634460Y-89202260D01*
X143662400Y-89212420D01*
X143692880Y-89222580D01*
X143713200Y-89232740D01*
X143723360Y-89263220D01*
X143733520Y-89283540D01*
X143743680Y-89324180D01*
X143743680Y-89443560D01*
X143474440Y-89443560D01*
X143474440Y-89702640D01*
X143743680Y-89702640D01*
X143743680Y-90863420D01*
X144132300Y-90863420D01*
X144132300Y-89852500D01*
X144132300Y-89702640D01*
G36*
X145762980Y-89123520D02*
X145384520Y-88902540D01*
X145384520Y-89954100D01*
X144894300Y-89443560D01*
X144432020Y-89443560D01*
X144962880Y-89964260D01*
X144373600Y-90863420D01*
X144843500Y-90863420D01*
X145232120Y-90223340D01*
X145384520Y-90373200D01*
X145384520Y-90863420D01*
X145762980Y-90863420D01*
X145762980Y-89123520D01*
G37*
X145762980Y-89123520D02*
X145384520Y-88902540D01*
X145384520Y-89954100D01*
X144894300Y-89443560D01*
X144432020Y-89443560D01*
X144962880Y-89964260D01*
X144373600Y-90863420D01*
X144843500Y-90863420D01*
X145232120Y-90223340D01*
X145384520Y-90373200D01*
X145384520Y-90863420D01*
X145762980Y-90863420D01*
X145762980Y-89123520D01*
G36*
X146832320Y-89512140D02*
X146784060Y-89504520D01*
X146733260Y-89494360D01*
X146692620Y-89484200D01*
X146644360Y-89484200D01*
X146593560Y-89474040D01*
X146552920Y-89463880D01*
X146502120Y-89453720D01*
X146464020Y-89443560D01*
X146464020Y-89712800D01*
X146453860Y-89712800D01*
X146423380Y-89644220D01*
X146382740Y-89583260D01*
X146334480Y-89532460D01*
X146273520Y-89494360D01*
X146212560Y-89453720D01*
X146143980Y-89433400D01*
X146072860Y-89413080D01*
X145933160Y-89413080D01*
X145923000Y-89423240D01*
X145923000Y-89783920D01*
X145933160Y-89783920D01*
X145953480Y-89773760D01*
X146062700Y-89773760D01*
X146164300Y-89783920D01*
X146243040Y-89804240D01*
X146304000Y-89842340D01*
X146362420Y-89903300D01*
X146392900Y-89974420D01*
X146423380Y-90043000D01*
X146443700Y-90134440D01*
X146443700Y-90863420D01*
X146832320Y-90863420D01*
X146832320Y-89682320D01*
X146832320Y-89512140D01*
G37*
X146832320Y-89512140D02*
X146784060Y-89504520D01*
X146733260Y-89494360D01*
X146692620Y-89484200D01*
X146644360Y-89484200D01*
X146593560Y-89474040D01*
X146552920Y-89463880D01*
X146502120Y-89453720D01*
X146464020Y-89443560D01*
X146464020Y-89712800D01*
X146453860Y-89712800D01*
X146423380Y-89644220D01*
X146382740Y-89583260D01*
X146334480Y-89532460D01*
X146273520Y-89494360D01*
X146212560Y-89453720D01*
X146143980Y-89433400D01*
X146072860Y-89413080D01*
X145933160Y-89413080D01*
X145923000Y-89423240D01*
X145923000Y-89783920D01*
X145933160Y-89783920D01*
X145953480Y-89773760D01*
X146062700Y-89773760D01*
X146164300Y-89783920D01*
X146243040Y-89804240D01*
X146304000Y-89842340D01*
X146362420Y-89903300D01*
X146392900Y-89974420D01*
X146423380Y-90043000D01*
X146443700Y-90134440D01*
X146443700Y-90863420D01*
X146832320Y-90863420D01*
X146832320Y-89682320D01*
X146832320Y-89512140D01*
G36*
X147822920Y-90263980D02*
X147843240Y-90274140D01*
X147863560Y-90284300D01*
X147883880Y-90294460D01*
X147904200Y-90302080D01*
X147924520Y-90312240D01*
X147932140Y-90322400D01*
X147942300Y-90332560D01*
X147962620Y-90352880D01*
X147972780Y-90373200D01*
X147982940Y-90393520D01*
X147982940Y-90434160D01*
X147993100Y-90462100D01*
X147982940Y-90482420D01*
X147982940Y-90502740D01*
X147972780Y-90533220D01*
X147972780Y-90543380D01*
X147962620Y-90563700D01*
X147942300Y-90584020D01*
X147932140Y-90594180D01*
X147914360Y-90604340D01*
X147904200Y-90614500D01*
X147883880Y-90622120D01*
X147863560Y-90622120D01*
X147843240Y-90632280D01*
X147693380Y-90632280D01*
X147652740Y-90622120D01*
X147612100Y-90614500D01*
X147574000Y-90604340D01*
X147543520Y-90584020D01*
X147513040Y-90553540D01*
X147492720Y-90533220D01*
X147482560Y-90502740D01*
X147462240Y-90482420D01*
X147452080Y-90454480D01*
X147452080Y-90424000D01*
X147444460Y-90403680D01*
X147444460Y-90373200D01*
X147434300Y-90352880D01*
X147434300Y-90162380D01*
X147452080Y-90172540D01*
X147462240Y-90182700D01*
X147482560Y-90192860D01*
X147492720Y-90203020D01*
X147513040Y-90203020D01*
X147533360Y-90213180D01*
X147553680Y-90223340D01*
X147604480Y-90223340D01*
X147642580Y-90012520D01*
X147574000Y-90002360D01*
X147513040Y-89982040D01*
X147472400Y-89954100D01*
X147444460Y-89913460D01*
X147434300Y-89862660D01*
X147434300Y-89832180D01*
X147444460Y-89804240D01*
X147444460Y-89783920D01*
X147452080Y-89763600D01*
X147462240Y-89743280D01*
X147482560Y-89722960D01*
X147492720Y-89712800D01*
X147513040Y-89702640D01*
X147533360Y-89692480D01*
X147553680Y-89682320D01*
X147574000Y-89682320D01*
X147594320Y-89672160D01*
X147662900Y-89672160D01*
X147683220Y-89662000D01*
X147713700Y-89672160D01*
X147764500Y-89672160D01*
X147792440Y-89682320D01*
X147812760Y-89682320D01*
X147833080Y-89692480D01*
X147853400Y-89702640D01*
X147863560Y-89712800D01*
X147883880Y-89733120D01*
X147894040Y-89743280D01*
X147914360Y-89763600D01*
X147924520Y-89783920D01*
X147932140Y-89804240D01*
X147932140Y-89832180D01*
X147942300Y-89852500D01*
X147942300Y-89882980D01*
X148333460Y-89882980D01*
X148323300Y-89814400D01*
X148313140Y-89763600D01*
X148292820Y-89702640D01*
X148262340Y-89654380D01*
X148234400Y-89613740D01*
X148193760Y-89573100D01*
X148153120Y-89542620D01*
X148112480Y-89512140D01*
X148064220Y-89484200D01*
X148013420Y-89463880D01*
X147962620Y-89443560D01*
X147904200Y-89433400D01*
X147843240Y-89423240D01*
X147782280Y-89413080D01*
X147563840Y-89413080D01*
X147502880Y-89423240D01*
X147452080Y-89423240D01*
X147403820Y-89433400D01*
X147342860Y-89453720D01*
X147302220Y-89463880D01*
X147253960Y-89484200D01*
X147213320Y-89504520D01*
X147172680Y-89532460D01*
X147132040Y-89573100D01*
X147104100Y-89603580D01*
X147083780Y-89654380D01*
X147063460Y-89692480D01*
X147053300Y-89753440D01*
X147043140Y-89814400D01*
X147043140Y-90713560D01*
X147032980Y-90733880D01*
X147032980Y-90774520D01*
X147022820Y-90792300D01*
X147022820Y-90802460D01*
X147012660Y-90822780D01*
X147012660Y-90832940D01*
X147002500Y-90853260D01*
X147002500Y-90863420D01*
X147393660Y-90863420D01*
X147393660Y-90843100D01*
X147403820Y-90832940D01*
X147403820Y-90822780D01*
X147413980Y-90812620D01*
X147413980Y-90754200D01*
X147424140Y-90744040D01*
X147424140Y-90723720D01*
X147444460Y-90744040D01*
X147462240Y-90774520D01*
X147492720Y-90792300D01*
X147523200Y-90802460D01*
X147553680Y-90822780D01*
X147574000Y-90832940D01*
X147604480Y-90853260D01*
X147632420Y-90863420D01*
X147673060Y-90873580D01*
X147703540Y-90883740D01*
X147734020Y-90883740D01*
X147764500Y-90893900D01*
X147833080Y-90893900D01*
X147863560Y-90904060D01*
X147942300Y-90904060D01*
X147993100Y-90893900D01*
X148043900Y-90893900D01*
X148082000Y-90873580D01*
X148122640Y-90863420D01*
X148163280Y-90843100D01*
X148203920Y-90822780D01*
X148234400Y-90802460D01*
X148262340Y-90774520D01*
X148292820Y-90744040D01*
X148323300Y-90703400D01*
X148343620Y-90662760D01*
X148353780Y-90622120D01*
X148363940Y-90584020D01*
X148374100Y-90533220D01*
X148374100Y-90482420D01*
X148363940Y-90373200D01*
X148333460Y-90284300D01*
X148282660Y-90213180D01*
X148224240Y-90152220D01*
X148153120Y-90114120D01*
X148074380Y-90083640D01*
X147982940Y-90063320D01*
X147904200Y-90053160D01*
X147822920Y-90263980D01*
G37*
X147822920Y-90263980D02*
X147843240Y-90274140D01*
X147863560Y-90284300D01*
X147883880Y-90294460D01*
X147904200Y-90302080D01*
X147924520Y-90312240D01*
X147932140Y-90322400D01*
X147942300Y-90332560D01*
X147962620Y-90352880D01*
X147972780Y-90373200D01*
X147982940Y-90393520D01*
X147982940Y-90434160D01*
X147993100Y-90462100D01*
X147982940Y-90482420D01*
X147982940Y-90502740D01*
X147972780Y-90533220D01*
X147972780Y-90543380D01*
X147962620Y-90563700D01*
X147942300Y-90584020D01*
X147932140Y-90594180D01*
X147914360Y-90604340D01*
X147904200Y-90614500D01*
X147883880Y-90622120D01*
X147863560Y-90622120D01*
X147843240Y-90632280D01*
X147693380Y-90632280D01*
X147652740Y-90622120D01*
X147612100Y-90614500D01*
X147574000Y-90604340D01*
X147543520Y-90584020D01*
X147513040Y-90553540D01*
X147492720Y-90533220D01*
X147482560Y-90502740D01*
X147462240Y-90482420D01*
X147452080Y-90454480D01*
X147452080Y-90424000D01*
X147444460Y-90403680D01*
X147444460Y-90373200D01*
X147434300Y-90352880D01*
X147434300Y-90162380D01*
X147452080Y-90172540D01*
X147462240Y-90182700D01*
X147482560Y-90192860D01*
X147492720Y-90203020D01*
X147513040Y-90203020D01*
X147533360Y-90213180D01*
X147553680Y-90223340D01*
X147604480Y-90223340D01*
X147642580Y-90012520D01*
X147574000Y-90002360D01*
X147513040Y-89982040D01*
X147472400Y-89954100D01*
X147444460Y-89913460D01*
X147434300Y-89862660D01*
X147434300Y-89832180D01*
X147444460Y-89804240D01*
X147444460Y-89783920D01*
X147452080Y-89763600D01*
X147462240Y-89743280D01*
X147482560Y-89722960D01*
X147492720Y-89712800D01*
X147513040Y-89702640D01*
X147533360Y-89692480D01*
X147553680Y-89682320D01*
X147574000Y-89682320D01*
X147594320Y-89672160D01*
X147662900Y-89672160D01*
X147683220Y-89662000D01*
X147713700Y-89672160D01*
X147764500Y-89672160D01*
X147792440Y-89682320D01*
X147812760Y-89682320D01*
X147833080Y-89692480D01*
X147853400Y-89702640D01*
X147863560Y-89712800D01*
X147883880Y-89733120D01*
X147894040Y-89743280D01*
X147914360Y-89763600D01*
X147924520Y-89783920D01*
X147932140Y-89804240D01*
X147932140Y-89832180D01*
X147942300Y-89852500D01*
X147942300Y-89882980D01*
X148333460Y-89882980D01*
X148323300Y-89814400D01*
X148313140Y-89763600D01*
X148292820Y-89702640D01*
X148262340Y-89654380D01*
X148234400Y-89613740D01*
X148193760Y-89573100D01*
X148153120Y-89542620D01*
X148112480Y-89512140D01*
X148064220Y-89484200D01*
X148013420Y-89463880D01*
X147962620Y-89443560D01*
X147904200Y-89433400D01*
X147843240Y-89423240D01*
X147782280Y-89413080D01*
X147563840Y-89413080D01*
X147502880Y-89423240D01*
X147452080Y-89423240D01*
X147403820Y-89433400D01*
X147342860Y-89453720D01*
X147302220Y-89463880D01*
X147253960Y-89484200D01*
X147213320Y-89504520D01*
X147172680Y-89532460D01*
X147132040Y-89573100D01*
X147104100Y-89603580D01*
X147083780Y-89654380D01*
X147063460Y-89692480D01*
X147053300Y-89753440D01*
X147043140Y-89814400D01*
X147043140Y-90713560D01*
X147032980Y-90733880D01*
X147032980Y-90774520D01*
X147022820Y-90792300D01*
X147022820Y-90802460D01*
X147012660Y-90822780D01*
X147012660Y-90832940D01*
X147002500Y-90853260D01*
X147002500Y-90863420D01*
X147393660Y-90863420D01*
X147393660Y-90843100D01*
X147403820Y-90832940D01*
X147403820Y-90822780D01*
X147413980Y-90812620D01*
X147413980Y-90754200D01*
X147424140Y-90744040D01*
X147424140Y-90723720D01*
X147444460Y-90744040D01*
X147462240Y-90774520D01*
X147492720Y-90792300D01*
X147523200Y-90802460D01*
X147553680Y-90822780D01*
X147574000Y-90832940D01*
X147604480Y-90853260D01*
X147632420Y-90863420D01*
X147673060Y-90873580D01*
X147703540Y-90883740D01*
X147734020Y-90883740D01*
X147764500Y-90893900D01*
X147833080Y-90893900D01*
X147863560Y-90904060D01*
X147942300Y-90904060D01*
X147993100Y-90893900D01*
X148043900Y-90893900D01*
X148082000Y-90873580D01*
X148122640Y-90863420D01*
X148163280Y-90843100D01*
X148203920Y-90822780D01*
X148234400Y-90802460D01*
X148262340Y-90774520D01*
X148292820Y-90744040D01*
X148323300Y-90703400D01*
X148343620Y-90662760D01*
X148353780Y-90622120D01*
X148363940Y-90584020D01*
X148374100Y-90533220D01*
X148374100Y-90482420D01*
X148363940Y-90373200D01*
X148333460Y-90284300D01*
X148282660Y-90213180D01*
X148224240Y-90152220D01*
X148153120Y-90114120D01*
X148074380Y-90083640D01*
X147982940Y-90063320D01*
X147904200Y-90053160D01*
X147822920Y-90263980D01*
G36*
X147904200Y-90053160D02*
X147812760Y-90032840D01*
X147723860Y-90022680D01*
X147642580Y-90012520D01*
X147604480Y-90223340D01*
X147622260Y-90233500D01*
X147662900Y-90233500D01*
X147693380Y-90243660D01*
X147734020Y-90243660D01*
X147764500Y-90253820D01*
X147782280Y-90253820D01*
X147802600Y-90263980D01*
X147822920Y-90263980D01*
X147904200Y-90053160D01*
G37*
X147904200Y-90053160D02*
X147812760Y-90032840D01*
X147723860Y-90022680D01*
X147642580Y-90012520D01*
X147604480Y-90223340D01*
X147622260Y-90233500D01*
X147662900Y-90233500D01*
X147693380Y-90243660D01*
X147734020Y-90243660D01*
X147764500Y-90253820D01*
X147782280Y-90253820D01*
X147802600Y-90263980D01*
X147822920Y-90263980D01*
X147904200Y-90053160D01*
G36*
X148572220Y-90563700D02*
X148643340Y-90672920D01*
X148732240Y-90764360D01*
X148833840Y-90832940D01*
X148963380Y-90883740D01*
X149113240Y-90893900D01*
X149174200Y-90893900D01*
X149232620Y-90883740D01*
X149293580Y-90863420D01*
X149352000Y-90843100D01*
X149402800Y-90812620D01*
X149453600Y-90774520D01*
X149494240Y-90733880D01*
X149532340Y-90683080D01*
X149532340Y-91704160D01*
X149583140Y-91663520D01*
X149633940Y-91612720D01*
X149682200Y-91572080D01*
X149733000Y-91533980D01*
X149783800Y-91483180D01*
X149824440Y-91442540D01*
X149872700Y-91404440D01*
X149923500Y-91353640D01*
X149923500Y-89512140D01*
X149872700Y-89504520D01*
X149832060Y-89494360D01*
X149783800Y-89484200D01*
X149743160Y-89484200D01*
X149692360Y-89474040D01*
X149644100Y-89463880D01*
X149603460Y-89453720D01*
X149552660Y-89443560D01*
X149552660Y-89623900D01*
X149512020Y-89573100D01*
X149473920Y-89522300D01*
X149423120Y-89494360D01*
X149372320Y-89463880D01*
X149313900Y-89433400D01*
X149252940Y-89423240D01*
X149194520Y-89413080D01*
X149133560Y-89402920D01*
X148973540Y-89423240D01*
X148844000Y-89474040D01*
X148732240Y-89542620D01*
X148643340Y-89634060D01*
X148572220Y-89753440D01*
X148523960Y-89882980D01*
X148493480Y-90022680D01*
X148493480Y-90162380D01*
X148874480Y-90152220D01*
X148882100Y-90073480D01*
X148892260Y-89992200D01*
X148922740Y-89913460D01*
X148953220Y-89842340D01*
X149004020Y-89783920D01*
X149062440Y-89743280D01*
X149133560Y-89712800D01*
X149212300Y-89702640D01*
X149303740Y-89712800D01*
X149372320Y-89743280D01*
X149433280Y-89783920D01*
X149484080Y-89842340D01*
X149512020Y-89913460D01*
X149532340Y-89992200D01*
X149552660Y-90073480D01*
X149552660Y-90243660D01*
X149532340Y-90322400D01*
X149512020Y-90403680D01*
X149473920Y-90462100D01*
X149433280Y-90523060D01*
X149372320Y-90563700D01*
X149303740Y-90594180D01*
X149212300Y-90604340D01*
X149123400Y-90594180D01*
X149052280Y-90563700D01*
X148993860Y-90523060D01*
X148953220Y-90462100D01*
X148912580Y-90403680D01*
X148572220Y-90563700D01*
G37*
X148572220Y-90563700D02*
X148643340Y-90672920D01*
X148732240Y-90764360D01*
X148833840Y-90832940D01*
X148963380Y-90883740D01*
X149113240Y-90893900D01*
X149174200Y-90893900D01*
X149232620Y-90883740D01*
X149293580Y-90863420D01*
X149352000Y-90843100D01*
X149402800Y-90812620D01*
X149453600Y-90774520D01*
X149494240Y-90733880D01*
X149532340Y-90683080D01*
X149532340Y-91704160D01*
X149583140Y-91663520D01*
X149633940Y-91612720D01*
X149682200Y-91572080D01*
X149733000Y-91533980D01*
X149783800Y-91483180D01*
X149824440Y-91442540D01*
X149872700Y-91404440D01*
X149923500Y-91353640D01*
X149923500Y-89512140D01*
X149872700Y-89504520D01*
X149832060Y-89494360D01*
X149783800Y-89484200D01*
X149743160Y-89484200D01*
X149692360Y-89474040D01*
X149644100Y-89463880D01*
X149603460Y-89453720D01*
X149552660Y-89443560D01*
X149552660Y-89623900D01*
X149512020Y-89573100D01*
X149473920Y-89522300D01*
X149423120Y-89494360D01*
X149372320Y-89463880D01*
X149313900Y-89433400D01*
X149252940Y-89423240D01*
X149194520Y-89413080D01*
X149133560Y-89402920D01*
X148973540Y-89423240D01*
X148844000Y-89474040D01*
X148732240Y-89542620D01*
X148643340Y-89634060D01*
X148572220Y-89753440D01*
X148523960Y-89882980D01*
X148493480Y-90022680D01*
X148493480Y-90162380D01*
X148874480Y-90152220D01*
X148882100Y-90073480D01*
X148892260Y-89992200D01*
X148922740Y-89913460D01*
X148953220Y-89842340D01*
X149004020Y-89783920D01*
X149062440Y-89743280D01*
X149133560Y-89712800D01*
X149212300Y-89702640D01*
X149303740Y-89712800D01*
X149372320Y-89743280D01*
X149433280Y-89783920D01*
X149484080Y-89842340D01*
X149512020Y-89913460D01*
X149532340Y-89992200D01*
X149552660Y-90073480D01*
X149552660Y-90243660D01*
X149532340Y-90322400D01*
X149512020Y-90403680D01*
X149473920Y-90462100D01*
X149433280Y-90523060D01*
X149372320Y-90563700D01*
X149303740Y-90594180D01*
X149212300Y-90604340D01*
X149123400Y-90594180D01*
X149052280Y-90563700D01*
X148993860Y-90523060D01*
X148953220Y-90462100D01*
X148912580Y-90403680D01*
X148572220Y-90563700D01*
G36*
X148912580Y-90403680D02*
X148892260Y-90322400D01*
X148882100Y-90243660D01*
X148874480Y-90152220D01*
X148493480Y-90162380D01*
X148503640Y-90302080D01*
X148523960Y-90444320D01*
X148572220Y-90563700D01*
X148912580Y-90403680D01*
G37*
X148912580Y-90403680D02*
X148892260Y-90322400D01*
X148882100Y-90243660D01*
X148874480Y-90152220D01*
X148493480Y-90162380D01*
X148503640Y-90302080D01*
X148523960Y-90444320D01*
X148572220Y-90563700D01*
X148912580Y-90403680D01*
G36*
X151023320Y-90403680D02*
X151013160Y-90462100D01*
X150992840Y-90502740D01*
X150972520Y-90553540D01*
X150934420Y-90584020D01*
X150883620Y-90604340D01*
X150832820Y-90622120D01*
X150782020Y-90632280D01*
X150723600Y-90642440D01*
X150682960Y-90632280D01*
X150642320Y-90632280D01*
X150594060Y-90614500D01*
X150553420Y-90604340D01*
X150522940Y-90573860D01*
X150492460Y-90543380D01*
X150472140Y-90502740D01*
X150472140Y-90454480D01*
X150482300Y-90413840D01*
X150502620Y-90383360D01*
X150533100Y-90352880D01*
X150583900Y-90322400D01*
X150652480Y-90302080D01*
X150723600Y-90284300D01*
X150812500Y-90263980D01*
X150914100Y-90243660D01*
X150992840Y-90213180D01*
X151074120Y-90192860D01*
X151152860Y-90162380D01*
X151223980Y-90124280D01*
X151272240Y-90073480D01*
X151323040Y-90022680D01*
X151353520Y-89943940D01*
X151363680Y-89862660D01*
X151343360Y-89733120D01*
X151302720Y-89634060D01*
X151244300Y-89562940D01*
X151163020Y-89504520D01*
X151074120Y-89453720D01*
X150972520Y-89423240D01*
X150863300Y-89413080D01*
X150743920Y-89402920D01*
X150632160Y-89413080D01*
X150522940Y-89423240D01*
X150423880Y-89453720D01*
X150332440Y-89504520D01*
X150253700Y-89562940D01*
X150182580Y-89644220D01*
X150144480Y-89743280D01*
X150124160Y-89852500D01*
X150492460Y-89852500D01*
X150502620Y-89804240D01*
X150512780Y-89763600D01*
X150543260Y-89733120D01*
X150573740Y-89702640D01*
X150614380Y-89682320D01*
X150652480Y-89672160D01*
X150703280Y-89662000D01*
X150792180Y-89662000D01*
X150822660Y-89672160D01*
X150863300Y-89672160D01*
X150893780Y-89682320D01*
X150924260Y-89702640D01*
X150952200Y-89722960D01*
X150962360Y-89753440D01*
X150972520Y-89794080D01*
X150962360Y-89842340D01*
X150934420Y-89882980D01*
X150893780Y-89913460D01*
X150832820Y-89933780D01*
X150764240Y-89954100D01*
X150693120Y-89974420D01*
X150614380Y-89982040D01*
X150533100Y-90002360D01*
X150444200Y-90022680D01*
X150362920Y-90053160D01*
X150294340Y-90083640D01*
X150223220Y-90124280D01*
X150162260Y-90172540D01*
X150124160Y-90233500D01*
X150093680Y-90312240D01*
X150083520Y-90403680D01*
X150093680Y-90533220D01*
X150144480Y-90632280D01*
X150202900Y-90723720D01*
X150284180Y-90782140D01*
X150383240Y-90832940D01*
X150492460Y-90873580D01*
X150614380Y-90893900D01*
X150853140Y-90893900D01*
X150972520Y-90873580D01*
X151084280Y-90832940D01*
X151183340Y-90782140D01*
X151262080Y-90723720D01*
X151333200Y-90632280D01*
X151373840Y-90523060D01*
X151394160Y-90403680D01*
X151074120Y-90403680D01*
X151023320Y-90403680D01*
G37*
X151023320Y-90403680D02*
X151013160Y-90462100D01*
X150992840Y-90502740D01*
X150972520Y-90553540D01*
X150934420Y-90584020D01*
X150883620Y-90604340D01*
X150832820Y-90622120D01*
X150782020Y-90632280D01*
X150723600Y-90642440D01*
X150682960Y-90632280D01*
X150642320Y-90632280D01*
X150594060Y-90614500D01*
X150553420Y-90604340D01*
X150522940Y-90573860D01*
X150492460Y-90543380D01*
X150472140Y-90502740D01*
X150472140Y-90454480D01*
X150482300Y-90413840D01*
X150502620Y-90383360D01*
X150533100Y-90352880D01*
X150583900Y-90322400D01*
X150652480Y-90302080D01*
X150723600Y-90284300D01*
X150812500Y-90263980D01*
X150914100Y-90243660D01*
X150992840Y-90213180D01*
X151074120Y-90192860D01*
X151152860Y-90162380D01*
X151223980Y-90124280D01*
X151272240Y-90073480D01*
X151323040Y-90022680D01*
X151353520Y-89943940D01*
X151363680Y-89862660D01*
X151343360Y-89733120D01*
X151302720Y-89634060D01*
X151244300Y-89562940D01*
X151163020Y-89504520D01*
X151074120Y-89453720D01*
X150972520Y-89423240D01*
X150863300Y-89413080D01*
X150743920Y-89402920D01*
X150632160Y-89413080D01*
X150522940Y-89423240D01*
X150423880Y-89453720D01*
X150332440Y-89504520D01*
X150253700Y-89562940D01*
X150182580Y-89644220D01*
X150144480Y-89743280D01*
X150124160Y-89852500D01*
X150492460Y-89852500D01*
X150502620Y-89804240D01*
X150512780Y-89763600D01*
X150543260Y-89733120D01*
X150573740Y-89702640D01*
X150614380Y-89682320D01*
X150652480Y-89672160D01*
X150703280Y-89662000D01*
X150792180Y-89662000D01*
X150822660Y-89672160D01*
X150863300Y-89672160D01*
X150893780Y-89682320D01*
X150924260Y-89702640D01*
X150952200Y-89722960D01*
X150962360Y-89753440D01*
X150972520Y-89794080D01*
X150962360Y-89842340D01*
X150934420Y-89882980D01*
X150893780Y-89913460D01*
X150832820Y-89933780D01*
X150764240Y-89954100D01*
X150693120Y-89974420D01*
X150614380Y-89982040D01*
X150533100Y-90002360D01*
X150444200Y-90022680D01*
X150362920Y-90053160D01*
X150294340Y-90083640D01*
X150223220Y-90124280D01*
X150162260Y-90172540D01*
X150124160Y-90233500D01*
X150093680Y-90312240D01*
X150083520Y-90403680D01*
X150093680Y-90533220D01*
X150144480Y-90632280D01*
X150202900Y-90723720D01*
X150284180Y-90782140D01*
X150383240Y-90832940D01*
X150492460Y-90873580D01*
X150614380Y-90893900D01*
X150853140Y-90893900D01*
X150972520Y-90873580D01*
X151084280Y-90832940D01*
X151183340Y-90782140D01*
X151262080Y-90723720D01*
X151333200Y-90632280D01*
X151373840Y-90523060D01*
X151394160Y-90403680D01*
X151074120Y-90403680D01*
X151023320Y-90403680D01*
M02*
