G04 #@! TF.GenerationSoftware,KiCad,Pcbnew,no-vcs-found-5013ea2~58~ubuntu16.04.1*
G04 #@! TF.CreationDate,2017-05-24T10:35:15-06:00*
G04 #@! TF.ProjectId,HiBeam_4-pack_v02,48694265616D5F342D7061636B5F7630,rev?*
G04 #@! TF.FileFunction,Copper,L1,Top,Signal*
G04 #@! TF.FilePolarity,Positive*
%FSLAX46Y46*%
G04 Gerber Fmt 4.6, Leading zero omitted, Abs format (unit mm)*
G04 Created by KiCad (PCBNEW no-vcs-found-5013ea2~58~ubuntu16.04.1) date Wed May 24 10:35:15 2017*
%MOMM*%
%LPD*%
G01*
G04 APERTURE LIST*
%ADD10C,0.100000*%
%ADD11R,2.000000X1.100000*%
%ADD12R,1.100000X2.000000*%
%ADD13R,1.099820X0.998220*%
%ADD14R,0.998220X1.099820*%
%ADD15C,0.635000*%
%ADD16C,0.600000*%
%ADD17C,0.609600*%
%ADD18C,0.406400*%
%ADD19C,0.254000*%
G04 APERTURE END LIST*
D10*
D11*
X148323000Y-89739999D03*
X148322998Y-91440000D03*
X148323000Y-93140000D03*
X143523000Y-93140001D03*
X143523002Y-91440000D03*
X143523000Y-89740000D03*
D12*
X154608001Y-100825000D03*
X152908000Y-100824998D03*
X151208000Y-100825000D03*
X151207999Y-96025000D03*
X152908000Y-96025002D03*
X154608000Y-96025000D03*
D11*
X143523000Y-107110001D03*
X143523002Y-105410000D03*
X143523000Y-103710000D03*
X148323000Y-103709999D03*
X148322998Y-105410000D03*
X148323000Y-107110000D03*
D12*
X137237999Y-96025000D03*
X138938000Y-96025002D03*
X140638000Y-96025000D03*
X140638001Y-100825000D03*
X138938000Y-100824998D03*
X137238000Y-100825000D03*
D13*
X146771360Y-101854000D03*
X145074640Y-101854000D03*
D14*
X142494000Y-99273360D03*
X142494000Y-97576640D03*
D13*
X145074640Y-94996000D03*
X146771360Y-94996000D03*
D14*
X149352000Y-97576640D03*
X149352000Y-99273360D03*
D15*
X153009600Y-91338400D03*
X138887200Y-105460800D03*
D16*
X146558000Y-106680000D03*
X149352000Y-94615000D03*
X142240000Y-94996000D03*
X149733000Y-101600000D03*
X145973800Y-91998800D03*
X139446000Y-98425000D03*
X146532600Y-103454200D03*
X147929600Y-101523800D03*
X149021800Y-96418400D03*
X143967200Y-95300800D03*
X142798800Y-100406200D03*
X150723600Y-103301800D03*
X152527000Y-105029000D03*
X152730200Y-98399600D03*
X155244800Y-98425000D03*
D17*
X143523000Y-103710000D02*
X145264400Y-103710000D01*
X145264400Y-103710000D02*
X146558000Y-105003600D01*
X146558000Y-105003600D02*
X146558000Y-106680000D01*
D18*
X146771360Y-94996000D02*
X147675000Y-94996000D01*
X147675000Y-94996000D02*
X148323000Y-94348000D01*
D17*
X148323000Y-93140000D02*
X148323000Y-94348000D01*
X148323000Y-94348000D02*
X148590000Y-94615000D01*
X148590000Y-94615000D02*
X149352000Y-94615000D01*
D18*
X149352000Y-99273360D02*
X149352000Y-100050000D01*
X149352000Y-100050000D02*
X150127000Y-100825000D01*
X145074640Y-101854000D02*
X144018000Y-101854000D01*
X144018000Y-101854000D02*
X143523000Y-102349000D01*
X143523000Y-102349000D02*
X143523000Y-103710000D01*
X142494000Y-97576640D02*
X142494000Y-96800000D01*
X142494000Y-96800000D02*
X141719000Y-96025000D01*
D17*
X140638000Y-96025000D02*
X141719000Y-96025000D01*
X141719000Y-96025000D02*
X142240000Y-95504000D01*
X142240000Y-95504000D02*
X142240000Y-94996000D01*
X151208000Y-100825000D02*
X150127000Y-100825000D01*
X150127000Y-100825000D02*
X149733000Y-101219000D01*
X149733000Y-101219000D02*
X149733000Y-101600000D01*
D19*
X143523000Y-93140000D02*
X145493000Y-93140000D01*
X145493000Y-93140000D02*
X145973800Y-92659200D01*
X145973800Y-92659200D02*
X145973800Y-91998800D01*
X140638000Y-100825000D02*
X140638000Y-98651800D01*
X140638000Y-98651800D02*
X140411200Y-98425000D01*
X140411200Y-98425000D02*
X139446000Y-98425000D01*
X140638000Y-100825000D02*
X140639800Y-100823200D01*
D18*
X145074640Y-94996000D02*
X144272000Y-94996000D01*
X144272000Y-94996000D02*
X143967200Y-95300800D01*
D17*
X143523000Y-93140000D02*
X143523000Y-94856600D01*
X143523000Y-94856600D02*
X143967200Y-95300800D01*
D18*
X149352000Y-97576640D02*
X149352000Y-96748600D01*
X149352000Y-96748600D02*
X149021800Y-96418400D01*
X146771360Y-101854000D02*
X147599400Y-101854000D01*
X147599400Y-101854000D02*
X147929600Y-101523800D01*
X142494000Y-99273360D02*
X142494000Y-100101400D01*
X142494000Y-100101400D02*
X142798800Y-100406200D01*
X147853400Y-101600000D02*
X147929600Y-101523800D01*
D17*
X148323000Y-103710000D02*
X148323000Y-101917200D01*
X148323000Y-101917200D02*
X147929600Y-101523800D01*
X151208000Y-96025000D02*
X149415200Y-96025000D01*
X149415200Y-96025000D02*
X149021800Y-96418400D01*
D19*
X144018000Y-95250000D02*
X143967200Y-95300800D01*
D17*
X140638000Y-100825000D02*
X142380000Y-100825000D01*
X142380000Y-100825000D02*
X142798800Y-100406200D01*
D19*
X148323000Y-105410000D02*
X149910800Y-105410000D01*
X149910800Y-105410000D02*
X150723600Y-104597200D01*
X150723600Y-104597200D02*
X150723600Y-103301800D01*
X148323000Y-107110000D02*
X150446000Y-107110000D01*
X150446000Y-107110000D02*
X152527000Y-105029000D01*
X152730200Y-98399600D02*
X152908000Y-98577400D01*
X152908000Y-98577400D02*
X152908000Y-100825000D01*
X154608000Y-100825000D02*
X154608000Y-99061800D01*
X154608000Y-99061800D02*
X155244800Y-98425000D01*
X143523000Y-107110000D02*
X142085800Y-107110000D01*
X137238000Y-102262200D02*
X137238000Y-100825000D01*
X142085800Y-107110000D02*
X137238000Y-102262200D01*
X143523000Y-105410000D02*
X141960600Y-105410000D01*
X138938000Y-102387400D02*
X138938000Y-100825000D01*
X141960600Y-105410000D02*
X138938000Y-102387400D01*
X137238000Y-96025000D02*
X137238000Y-94410000D01*
X137238000Y-94410000D02*
X141908000Y-89740000D01*
X141908000Y-89740000D02*
X143523000Y-89740000D01*
X138938000Y-96025000D02*
X138938000Y-94564200D01*
X142062200Y-91440000D02*
X143523000Y-91440000D01*
X138938000Y-94564200D02*
X142062200Y-91440000D01*
X148323000Y-89740000D02*
X150217400Y-89740000D01*
X154608000Y-94130600D02*
X154608000Y-96025000D01*
X150217400Y-89740000D02*
X154608000Y-94130600D01*
X148323000Y-91440000D02*
X149936200Y-91440000D01*
X152908000Y-94411800D02*
X152908000Y-96025000D01*
X149936200Y-91440000D02*
X152908000Y-94411800D01*
G36*
X147985187Y-88378809D02*
X148956698Y-88679542D01*
X147323000Y-88679542D01*
X147223415Y-88689350D01*
X147127657Y-88718398D01*
X147039405Y-88765570D01*
X146962052Y-88829051D01*
X146898571Y-88906404D01*
X146851399Y-88994656D01*
X146822351Y-89090414D01*
X146812543Y-89189999D01*
X146812543Y-90289999D01*
X146822351Y-90389584D01*
X146851399Y-90485342D01*
X146898571Y-90573594D01*
X146912033Y-90589998D01*
X146898569Y-90606405D01*
X146851397Y-90694657D01*
X146822349Y-90790415D01*
X146812541Y-90890000D01*
X146812541Y-91990000D01*
X146822349Y-92089585D01*
X146851397Y-92185343D01*
X146898569Y-92273595D01*
X146912033Y-92290001D01*
X146898571Y-92306405D01*
X146851399Y-92394657D01*
X146822351Y-92490415D01*
X146812543Y-92590000D01*
X146812543Y-93690000D01*
X146822351Y-93789585D01*
X146851399Y-93885343D01*
X146898571Y-93973595D01*
X146909107Y-93986433D01*
X146221450Y-93986433D01*
X146121865Y-93996241D01*
X146045187Y-94019501D01*
X146029339Y-94003653D01*
X145925335Y-93934160D01*
X145809773Y-93886293D01*
X145687092Y-93861890D01*
X145360390Y-93861890D01*
X145201642Y-94020638D01*
X145201642Y-93861890D01*
X145136249Y-93861890D01*
X145158000Y-93752543D01*
X145158000Y-93425751D01*
X144999250Y-93267001D01*
X143650000Y-93267001D01*
X143650000Y-94166251D01*
X143808750Y-94325001D01*
X143911481Y-94325001D01*
X143889730Y-94434348D01*
X143889730Y-94710250D01*
X144048480Y-94869000D01*
X144947640Y-94869000D01*
X144947640Y-94849000D01*
X145201640Y-94849000D01*
X145201640Y-94869000D01*
X145221640Y-94869000D01*
X145221640Y-95123000D01*
X145201640Y-95123000D01*
X145201640Y-95971360D01*
X145360390Y-96130110D01*
X145687092Y-96130110D01*
X145809773Y-96105707D01*
X145925335Y-96057840D01*
X146029339Y-95988347D01*
X146045187Y-95972499D01*
X146121865Y-95995759D01*
X146221450Y-96005567D01*
X147321270Y-96005567D01*
X147420855Y-95995759D01*
X147516613Y-95966711D01*
X147604865Y-95919539D01*
X147682218Y-95856058D01*
X147745699Y-95778705D01*
X147789650Y-95696479D01*
X147805826Y-95695064D01*
X147809421Y-95694020D01*
X147813139Y-95693655D01*
X147875990Y-95674679D01*
X147939117Y-95656339D01*
X147942438Y-95654618D01*
X147946017Y-95653537D01*
X148004012Y-95622701D01*
X148062347Y-95592463D01*
X148065270Y-95590130D01*
X148068572Y-95588374D01*
X148119487Y-95546849D01*
X148170824Y-95505867D01*
X148176024Y-95500738D01*
X148176136Y-95500647D01*
X148176222Y-95500543D01*
X148177894Y-95498894D01*
X148303499Y-95373289D01*
X148349420Y-95387329D01*
X148421009Y-95410038D01*
X148425259Y-95410515D01*
X148429345Y-95411764D01*
X148504017Y-95419349D01*
X148578652Y-95427721D01*
X148587007Y-95427779D01*
X148587163Y-95427795D01*
X148587308Y-95427781D01*
X148590000Y-95427800D01*
X149352000Y-95427800D01*
X149390552Y-95424020D01*
X149414289Y-95424517D01*
X149450375Y-95418154D01*
X149509874Y-95412320D01*
X149546958Y-95401124D01*
X149570339Y-95397001D01*
X149604499Y-95383751D01*
X149661734Y-95366471D01*
X149695939Y-95348284D01*
X149718072Y-95339699D01*
X149749009Y-95320066D01*
X149801797Y-95291998D01*
X149831814Y-95267517D01*
X149851862Y-95254794D01*
X149878399Y-95229523D01*
X149924727Y-95191739D01*
X149949418Y-95161892D01*
X149966612Y-95145519D01*
X149987734Y-95115577D01*
X150022999Y-95072949D01*
X150022999Y-95739250D01*
X150181749Y-95898000D01*
X151080999Y-95898000D01*
X151080999Y-94548750D01*
X150922249Y-94390000D01*
X150595457Y-94390000D01*
X150472776Y-94414403D01*
X150357214Y-94462270D01*
X150253210Y-94531763D01*
X150164762Y-94620211D01*
X150164741Y-94620243D01*
X150159638Y-94564177D01*
X150160035Y-94535771D01*
X150154517Y-94507905D01*
X150150403Y-94462696D01*
X150135620Y-94412469D01*
X150129257Y-94380332D01*
X150118432Y-94354069D01*
X150105615Y-94310520D01*
X150081360Y-94264125D01*
X150068874Y-94233831D01*
X150053152Y-94210167D01*
X150032122Y-94169941D01*
X149999318Y-94129141D01*
X149981185Y-94101849D01*
X149961166Y-94081690D01*
X149932723Y-94046314D01*
X149892619Y-94012662D01*
X149869531Y-93989413D01*
X149845979Y-93973527D01*
X149811205Y-93944348D01*
X149773996Y-93923892D01*
X149794601Y-93885343D01*
X149823649Y-93789585D01*
X149833457Y-93690000D01*
X149833457Y-92590000D01*
X149823649Y-92490415D01*
X149794601Y-92394657D01*
X149747429Y-92306405D01*
X149733965Y-92289999D01*
X149747427Y-92273595D01*
X149790739Y-92192565D01*
X152063787Y-94465613D01*
X152058784Y-94462270D01*
X151943222Y-94414403D01*
X151820541Y-94390000D01*
X151493749Y-94390000D01*
X151334999Y-94548750D01*
X151334999Y-95898000D01*
X151354999Y-95898000D01*
X151354999Y-96152000D01*
X151334999Y-96152000D01*
X151334999Y-97501250D01*
X151493749Y-97660000D01*
X151820541Y-97660000D01*
X151943222Y-97635597D01*
X152058784Y-97587730D01*
X152162788Y-97518237D01*
X152179356Y-97501669D01*
X152258415Y-97525651D01*
X152358000Y-97535459D01*
X153458000Y-97535459D01*
X153557585Y-97525651D01*
X153653343Y-97496603D01*
X153741595Y-97449431D01*
X153758001Y-97435967D01*
X153774405Y-97449429D01*
X153862657Y-97496601D01*
X153958415Y-97525649D01*
X154058000Y-97535457D01*
X155158000Y-97535457D01*
X155257585Y-97525649D01*
X155353343Y-97496601D01*
X155441595Y-97449429D01*
X155518948Y-97385948D01*
X155582429Y-97308595D01*
X155629601Y-97220343D01*
X155658649Y-97124585D01*
X155668457Y-97025000D01*
X155668457Y-95390047D01*
X155983343Y-96432999D01*
X156178660Y-98425000D01*
X156174661Y-98711355D01*
X155923800Y-100697126D01*
X155668458Y-101464713D01*
X155668458Y-99825000D01*
X155658650Y-99725415D01*
X155629602Y-99629657D01*
X155582430Y-99541405D01*
X155518949Y-99464052D01*
X155441596Y-99400571D01*
X155353344Y-99353399D01*
X155257586Y-99324351D01*
X155244740Y-99323086D01*
X155338922Y-99228904D01*
X155463139Y-99207001D01*
X155610872Y-99149699D01*
X155744662Y-99064794D01*
X155859412Y-98955519D01*
X155950752Y-98826036D01*
X156015202Y-98681279D01*
X156050308Y-98526759D01*
X156052835Y-98345771D01*
X156022057Y-98190332D01*
X155961674Y-98043831D01*
X155873985Y-97911849D01*
X155762331Y-97799413D01*
X155630964Y-97710805D01*
X155484888Y-97649400D01*
X155329668Y-97617538D01*
X155171215Y-97616431D01*
X155015564Y-97646123D01*
X154868645Y-97705482D01*
X154736054Y-97792248D01*
X154622841Y-97903114D01*
X154533318Y-98033859D01*
X154470895Y-98179503D01*
X154438132Y-98333642D01*
X154158987Y-98612787D01*
X154121713Y-98658165D01*
X154084053Y-98703046D01*
X154082447Y-98705968D01*
X154080324Y-98708552D01*
X154052579Y-98760297D01*
X154024349Y-98811647D01*
X154023340Y-98814829D01*
X154021761Y-98817773D01*
X154004616Y-98873854D01*
X153986876Y-98929776D01*
X153986503Y-98933097D01*
X153985528Y-98936288D01*
X153979603Y-98994616D01*
X153973062Y-99052934D01*
X153973016Y-99059462D01*
X153973004Y-99059584D01*
X153973015Y-99059697D01*
X153973000Y-99061800D01*
X153973000Y-99322915D01*
X153958416Y-99324351D01*
X153862658Y-99353399D01*
X153774406Y-99400571D01*
X153758002Y-99414033D01*
X153741595Y-99400569D01*
X153653343Y-99353397D01*
X153557585Y-99324349D01*
X153543000Y-99322913D01*
X153543000Y-98577400D01*
X153537273Y-98518994D01*
X153535711Y-98501136D01*
X153538235Y-98320371D01*
X153507457Y-98164932D01*
X153447074Y-98018431D01*
X153359385Y-97886449D01*
X153247731Y-97774013D01*
X153116364Y-97685405D01*
X152970288Y-97624000D01*
X152815068Y-97592138D01*
X152656615Y-97591031D01*
X152500964Y-97620723D01*
X152354045Y-97680082D01*
X152221454Y-97766848D01*
X152108241Y-97877714D01*
X152018718Y-98008459D01*
X151956295Y-98154103D01*
X151923350Y-98309097D01*
X151921137Y-98467539D01*
X151949742Y-98623393D01*
X152008074Y-98770722D01*
X152093911Y-98903916D01*
X152203985Y-99017901D01*
X152273000Y-99065867D01*
X152273000Y-99322913D01*
X152258415Y-99324349D01*
X152162657Y-99353397D01*
X152074405Y-99400569D01*
X152057999Y-99414033D01*
X152041595Y-99400571D01*
X151953343Y-99353399D01*
X151857585Y-99324351D01*
X151758000Y-99314543D01*
X150658000Y-99314543D01*
X150558415Y-99324351D01*
X150462657Y-99353399D01*
X150374405Y-99400571D01*
X150361567Y-99411107D01*
X150361567Y-98723450D01*
X150351759Y-98623865D01*
X150328499Y-98547187D01*
X150344347Y-98531339D01*
X150413840Y-98427335D01*
X150461707Y-98311773D01*
X150486110Y-98189092D01*
X150486110Y-97862390D01*
X150327362Y-97703642D01*
X150486110Y-97703642D01*
X150486110Y-97638249D01*
X150595457Y-97660000D01*
X150922249Y-97660000D01*
X151080999Y-97501250D01*
X151080999Y-96152000D01*
X150181749Y-96152000D01*
X150022999Y-96310750D01*
X150022999Y-96413481D01*
X149913652Y-96391730D01*
X149637750Y-96391730D01*
X149479000Y-96550480D01*
X149479000Y-97449640D01*
X149499000Y-97449640D01*
X149499000Y-97703640D01*
X149479000Y-97703640D01*
X149479000Y-97723640D01*
X149225000Y-97723640D01*
X149225000Y-97703640D01*
X148376640Y-97703640D01*
X148217890Y-97862390D01*
X148217890Y-98189092D01*
X148242293Y-98311773D01*
X148290160Y-98427335D01*
X148359653Y-98531339D01*
X148375501Y-98547187D01*
X148352241Y-98623865D01*
X148342433Y-98723450D01*
X148342433Y-99823270D01*
X148352241Y-99922855D01*
X148381289Y-100018613D01*
X148428461Y-100106865D01*
X148491942Y-100184218D01*
X148569295Y-100247699D01*
X148657547Y-100294871D01*
X148688826Y-100304359D01*
X148691661Y-100314117D01*
X148693382Y-100317438D01*
X148694463Y-100321017D01*
X148725299Y-100379012D01*
X148755537Y-100437347D01*
X148757870Y-100440270D01*
X148759626Y-100443572D01*
X148801151Y-100494487D01*
X148842133Y-100545824D01*
X148847262Y-100551024D01*
X148847353Y-100551136D01*
X148847457Y-100551222D01*
X148849106Y-100552894D01*
X149060047Y-100763835D01*
X149057576Y-100766843D01*
X149022098Y-100833009D01*
X148985927Y-100898804D01*
X148984634Y-100902879D01*
X148982615Y-100906645D01*
X148960671Y-100978420D01*
X148937962Y-101050009D01*
X148937485Y-101054259D01*
X148936236Y-101058345D01*
X148928651Y-101133017D01*
X148920279Y-101207652D01*
X148920221Y-101216007D01*
X148920205Y-101216163D01*
X148920219Y-101216308D01*
X148920200Y-101219000D01*
X148920200Y-101600000D01*
X148924302Y-101641831D01*
X148923937Y-101667939D01*
X148930216Y-101702151D01*
X148935680Y-101757874D01*
X148947829Y-101798113D01*
X148952542Y-101823793D01*
X148965345Y-101856129D01*
X148981529Y-101909734D01*
X149001264Y-101946850D01*
X149010874Y-101971122D01*
X149029713Y-102000354D01*
X149056002Y-102049797D01*
X149082568Y-102082370D01*
X149096711Y-102104316D01*
X149120871Y-102129334D01*
X149156261Y-102172727D01*
X149188649Y-102199521D01*
X149206785Y-102218301D01*
X149235342Y-102238148D01*
X149278488Y-102273842D01*
X149315467Y-102293836D01*
X149336902Y-102308734D01*
X149368768Y-102322656D01*
X149418027Y-102349290D01*
X149458184Y-102361721D01*
X149482106Y-102372172D01*
X149516069Y-102379639D01*
X149569564Y-102396199D01*
X149611369Y-102400593D01*
X149636867Y-102406199D01*
X149671640Y-102406927D01*
X149727326Y-102412780D01*
X149769188Y-102408970D01*
X149795289Y-102409517D01*
X149829537Y-102403478D01*
X149885304Y-102398403D01*
X149925631Y-102386534D01*
X149951339Y-102382001D01*
X149983760Y-102369426D01*
X150037480Y-102353615D01*
X150074734Y-102334139D01*
X150099072Y-102324699D01*
X150128435Y-102306065D01*
X150178059Y-102280122D01*
X150210815Y-102253785D01*
X150232862Y-102239794D01*
X150258053Y-102215805D01*
X150296311Y-102185045D01*
X150297052Y-102185948D01*
X150374405Y-102249429D01*
X150462657Y-102296601D01*
X150558415Y-102325649D01*
X150658000Y-102335457D01*
X151758000Y-102335457D01*
X151857585Y-102325649D01*
X151953343Y-102296601D01*
X152041595Y-102249429D01*
X152058001Y-102235965D01*
X152074405Y-102249427D01*
X152162657Y-102296599D01*
X152258415Y-102325647D01*
X152358000Y-102335455D01*
X153458000Y-102335455D01*
X153557585Y-102325647D01*
X153653343Y-102296599D01*
X153741595Y-102249427D01*
X153757999Y-102235965D01*
X153774406Y-102249429D01*
X153862658Y-102296601D01*
X153958416Y-102325649D01*
X154058001Y-102335457D01*
X155158001Y-102335457D01*
X155257586Y-102325649D01*
X155353344Y-102296601D01*
X155400027Y-102271648D01*
X155292012Y-102596353D01*
X154303360Y-104336694D01*
X152995504Y-105851860D01*
X151418257Y-107084140D01*
X151320511Y-107133515D01*
X152621122Y-105832904D01*
X152745339Y-105811001D01*
X152893072Y-105753699D01*
X153026862Y-105668794D01*
X153141612Y-105559519D01*
X153232952Y-105430036D01*
X153297402Y-105285279D01*
X153332508Y-105130759D01*
X153335035Y-104949771D01*
X153304257Y-104794332D01*
X153243874Y-104647831D01*
X153156185Y-104515849D01*
X153044531Y-104403413D01*
X152913164Y-104314805D01*
X152767088Y-104253400D01*
X152611868Y-104221538D01*
X152453415Y-104220431D01*
X152297764Y-104250123D01*
X152150845Y-104309482D01*
X152018254Y-104396248D01*
X151905041Y-104507114D01*
X151815518Y-104637859D01*
X151753095Y-104783503D01*
X151720332Y-104937642D01*
X150182974Y-106475000D01*
X149825085Y-106475000D01*
X149823649Y-106460415D01*
X149794601Y-106364657D01*
X149747429Y-106276405D01*
X149733965Y-106259999D01*
X149747427Y-106243595D01*
X149794599Y-106155343D01*
X149823647Y-106059585D01*
X149825083Y-106045000D01*
X149910800Y-106045000D01*
X149969206Y-106039273D01*
X150027609Y-106034164D01*
X150030813Y-106033233D01*
X150034139Y-106032907D01*
X150090348Y-106015937D01*
X150146619Y-105999588D01*
X150149580Y-105998053D01*
X150152780Y-105997087D01*
X150204593Y-105969538D01*
X150256646Y-105942556D01*
X150259256Y-105940473D01*
X150262204Y-105938905D01*
X150307657Y-105901835D01*
X150353500Y-105865238D01*
X150358150Y-105860653D01*
X150358243Y-105860577D01*
X150358314Y-105860491D01*
X150359813Y-105859013D01*
X151172613Y-105046213D01*
X151209887Y-105000835D01*
X151247547Y-104955954D01*
X151249153Y-104953032D01*
X151251276Y-104950448D01*
X151279021Y-104898703D01*
X151307251Y-104847353D01*
X151308260Y-104844171D01*
X151309839Y-104841227D01*
X151326997Y-104785105D01*
X151344724Y-104729224D01*
X151345096Y-104725908D01*
X151346073Y-104722712D01*
X151352002Y-104664335D01*
X151358538Y-104606066D01*
X151358584Y-104599538D01*
X151358596Y-104599416D01*
X151358585Y-104599303D01*
X151358600Y-104597200D01*
X151358600Y-103803417D01*
X151429552Y-103702836D01*
X151494002Y-103558079D01*
X151529108Y-103403559D01*
X151531635Y-103222571D01*
X151500857Y-103067132D01*
X151440474Y-102920631D01*
X151352785Y-102788649D01*
X151241131Y-102676213D01*
X151109764Y-102587605D01*
X150963688Y-102526200D01*
X150808468Y-102494338D01*
X150650015Y-102493231D01*
X150494364Y-102522923D01*
X150347445Y-102582282D01*
X150214854Y-102669048D01*
X150101641Y-102779914D01*
X150012118Y-102910659D01*
X149949776Y-103056114D01*
X149933597Y-102974776D01*
X149885730Y-102859214D01*
X149816237Y-102755210D01*
X149727789Y-102666762D01*
X149623785Y-102597269D01*
X149508223Y-102549402D01*
X149385542Y-102524999D01*
X148608750Y-102524999D01*
X148450000Y-102683749D01*
X148450000Y-103582999D01*
X149799250Y-103582999D01*
X149929730Y-103452519D01*
X149943142Y-103525593D01*
X150001474Y-103672922D01*
X150087311Y-103806116D01*
X150088600Y-103807451D01*
X150088600Y-104334174D01*
X149902517Y-104520257D01*
X149933597Y-104445222D01*
X149958000Y-104322541D01*
X149958000Y-103995749D01*
X149799250Y-103836999D01*
X148450000Y-103836999D01*
X148450000Y-103856999D01*
X148196000Y-103856999D01*
X148196000Y-103836999D01*
X146846750Y-103836999D01*
X146693811Y-103989938D01*
X145839136Y-103135264D01*
X145781117Y-103087606D01*
X145723605Y-103039348D01*
X145719860Y-103037289D01*
X145716557Y-103034576D01*
X145650391Y-102999098D01*
X145584596Y-102962927D01*
X145580521Y-102961634D01*
X145576755Y-102959615D01*
X145504980Y-102937671D01*
X145433391Y-102914962D01*
X145429141Y-102914485D01*
X145425055Y-102913236D01*
X145350383Y-102905651D01*
X145275748Y-102897279D01*
X145267393Y-102897221D01*
X145267237Y-102897205D01*
X145267092Y-102897219D01*
X145264400Y-102897200D01*
X144958544Y-102897200D01*
X144947429Y-102876405D01*
X144936893Y-102863567D01*
X145624550Y-102863567D01*
X145724135Y-102853759D01*
X145800813Y-102830499D01*
X145816661Y-102846347D01*
X145920665Y-102915840D01*
X146036227Y-102963707D01*
X146158908Y-102988110D01*
X146485610Y-102988110D01*
X146644358Y-102829362D01*
X146644358Y-102988110D01*
X146709751Y-102988110D01*
X146688000Y-103097457D01*
X146688000Y-103424249D01*
X146846750Y-103582999D01*
X148196000Y-103582999D01*
X148196000Y-102683749D01*
X148037250Y-102524999D01*
X147934519Y-102524999D01*
X147956270Y-102415652D01*
X147956270Y-102139750D01*
X147797520Y-101981000D01*
X146898360Y-101981000D01*
X146898360Y-102001000D01*
X146644360Y-102001000D01*
X146644360Y-101981000D01*
X146624360Y-101981000D01*
X146624360Y-101727000D01*
X146644360Y-101727000D01*
X146644360Y-100878640D01*
X146898360Y-100878640D01*
X146898360Y-101727000D01*
X147797520Y-101727000D01*
X147956270Y-101568250D01*
X147956270Y-101292348D01*
X147931867Y-101169667D01*
X147884000Y-101054105D01*
X147814507Y-100950101D01*
X147726059Y-100861653D01*
X147622055Y-100792160D01*
X147506493Y-100744293D01*
X147383812Y-100719890D01*
X147057110Y-100719890D01*
X146898360Y-100878640D01*
X146644360Y-100878640D01*
X146485610Y-100719890D01*
X146158908Y-100719890D01*
X146036227Y-100744293D01*
X145920665Y-100792160D01*
X145816661Y-100861653D01*
X145800813Y-100877501D01*
X145724135Y-100854241D01*
X145624550Y-100844433D01*
X144524730Y-100844433D01*
X144425145Y-100854241D01*
X144329387Y-100883289D01*
X144241135Y-100930461D01*
X144163782Y-100993942D01*
X144100301Y-101071295D01*
X144062081Y-101142800D01*
X144018000Y-101142800D01*
X143952699Y-101149203D01*
X143887174Y-101154936D01*
X143883579Y-101155980D01*
X143879861Y-101156345D01*
X143817010Y-101175321D01*
X143753883Y-101193661D01*
X143750562Y-101195382D01*
X143746983Y-101196463D01*
X143688988Y-101227299D01*
X143630653Y-101257537D01*
X143627730Y-101259870D01*
X143624428Y-101261626D01*
X143573513Y-101303151D01*
X143522176Y-101344133D01*
X143516972Y-101349265D01*
X143516864Y-101349353D01*
X143516782Y-101349453D01*
X143515106Y-101351105D01*
X143020106Y-101846106D01*
X142978442Y-101896828D01*
X142936179Y-101947195D01*
X142934377Y-101950474D01*
X142932004Y-101953362D01*
X142900960Y-102011258D01*
X142869311Y-102068829D01*
X142868181Y-102072392D01*
X142866413Y-102075689D01*
X142847208Y-102138504D01*
X142827341Y-102201133D01*
X142826924Y-102204851D01*
X142825831Y-102208426D01*
X142819193Y-102273772D01*
X142811869Y-102339070D01*
X142811818Y-102346377D01*
X142811804Y-102346517D01*
X142811816Y-102346648D01*
X142811800Y-102349000D01*
X142811800Y-102649543D01*
X142523000Y-102649543D01*
X142423415Y-102659351D01*
X142327657Y-102688399D01*
X142239405Y-102735571D01*
X142162052Y-102799052D01*
X142098571Y-102876405D01*
X142051399Y-102964657D01*
X142022351Y-103060415D01*
X142012543Y-103160000D01*
X142012543Y-104260000D01*
X142022351Y-104359585D01*
X142051399Y-104455343D01*
X142098571Y-104543595D01*
X142112035Y-104560001D01*
X142098573Y-104576405D01*
X142072956Y-104624330D01*
X139871103Y-102422477D01*
X139902778Y-102435597D01*
X140025459Y-102460000D01*
X140352251Y-102460000D01*
X140511001Y-102301250D01*
X140511001Y-100952000D01*
X140765001Y-100952000D01*
X140765001Y-102301250D01*
X140923751Y-102460000D01*
X141250543Y-102460000D01*
X141373224Y-102435597D01*
X141488786Y-102387730D01*
X141592790Y-102318237D01*
X141681238Y-102229789D01*
X141750731Y-102125785D01*
X141798598Y-102010223D01*
X141823001Y-101887542D01*
X141823001Y-101110750D01*
X141664251Y-100952000D01*
X140765001Y-100952000D01*
X140511001Y-100952000D01*
X140491001Y-100952000D01*
X140491001Y-100698000D01*
X140511001Y-100698000D01*
X140511001Y-99348750D01*
X140352251Y-99190000D01*
X140025459Y-99190000D01*
X139902778Y-99214403D01*
X139787216Y-99262270D01*
X139683212Y-99331763D01*
X139666644Y-99348331D01*
X139587585Y-99324349D01*
X139488000Y-99314541D01*
X138388000Y-99314541D01*
X138288415Y-99324349D01*
X138192657Y-99353397D01*
X138104405Y-99400569D01*
X138087999Y-99414033D01*
X138071595Y-99400571D01*
X137983343Y-99353399D01*
X137887585Y-99324351D01*
X137788000Y-99314543D01*
X136688000Y-99314543D01*
X136588415Y-99324351D01*
X136492657Y-99353399D01*
X136404405Y-99400571D01*
X136327052Y-99464052D01*
X136263571Y-99541405D01*
X136216399Y-99629657D01*
X136187351Y-99725415D01*
X136177543Y-99825000D01*
X136177543Y-101468055D01*
X135835825Y-100276343D01*
X135668340Y-98281809D01*
X135891451Y-96292728D01*
X136177542Y-95390854D01*
X136177542Y-97025000D01*
X136187350Y-97124585D01*
X136216398Y-97220343D01*
X136263570Y-97308595D01*
X136327051Y-97385948D01*
X136404404Y-97449429D01*
X136492656Y-97496601D01*
X136588414Y-97525649D01*
X136687999Y-97535457D01*
X137787999Y-97535457D01*
X137887584Y-97525649D01*
X137983342Y-97496601D01*
X138071594Y-97449429D01*
X138087998Y-97435967D01*
X138104405Y-97449431D01*
X138192657Y-97496603D01*
X138288415Y-97525651D01*
X138388000Y-97535459D01*
X139488000Y-97535459D01*
X139587585Y-97525651D01*
X139683343Y-97496603D01*
X139771595Y-97449431D01*
X139788001Y-97435967D01*
X139804405Y-97449429D01*
X139892657Y-97496601D01*
X139988415Y-97525649D01*
X140088000Y-97535457D01*
X141188000Y-97535457D01*
X141287585Y-97525649D01*
X141383343Y-97496601D01*
X141471595Y-97449429D01*
X141484433Y-97438893D01*
X141484433Y-98126550D01*
X141494241Y-98226135D01*
X141517501Y-98302813D01*
X141501653Y-98318661D01*
X141432160Y-98422665D01*
X141384293Y-98538227D01*
X141359890Y-98660908D01*
X141359890Y-98987610D01*
X141518638Y-99146358D01*
X141359890Y-99146358D01*
X141359890Y-99211751D01*
X141250543Y-99190000D01*
X140923751Y-99190000D01*
X140765001Y-99348750D01*
X140765001Y-100698000D01*
X141664251Y-100698000D01*
X141823001Y-100539250D01*
X141823001Y-100436519D01*
X141932348Y-100458270D01*
X142208250Y-100458270D01*
X142367000Y-100299520D01*
X142367000Y-99400360D01*
X142621000Y-99400360D01*
X142621000Y-100299520D01*
X142779750Y-100458270D01*
X143055652Y-100458270D01*
X143178333Y-100433867D01*
X143293895Y-100386000D01*
X143397899Y-100316507D01*
X143486347Y-100228059D01*
X143555840Y-100124055D01*
X143603707Y-100008493D01*
X143628110Y-99885812D01*
X143628110Y-99559110D01*
X143469360Y-99400360D01*
X142621000Y-99400360D01*
X142367000Y-99400360D01*
X142347000Y-99400360D01*
X142347000Y-99146360D01*
X142367000Y-99146360D01*
X142367000Y-99126360D01*
X142621000Y-99126360D01*
X142621000Y-99146360D01*
X143469360Y-99146360D01*
X143628110Y-98987610D01*
X143628110Y-98660908D01*
X143614109Y-98590517D01*
X143951912Y-98590517D01*
X144021600Y-98970218D01*
X144163712Y-99329151D01*
X144372835Y-99653646D01*
X144641003Y-99931342D01*
X144958001Y-100151662D01*
X145311757Y-100306214D01*
X145688794Y-100389111D01*
X146074752Y-100397195D01*
X146454930Y-100330160D01*
X146814847Y-100190557D01*
X147140794Y-99983705D01*
X147420355Y-99717482D01*
X147642883Y-99402029D01*
X147799900Y-99049362D01*
X147885428Y-98672912D01*
X147891585Y-98231979D01*
X147816602Y-97853288D01*
X147669492Y-97496374D01*
X147455860Y-97174830D01*
X147246683Y-96964188D01*
X148217890Y-96964188D01*
X148217890Y-97290890D01*
X148376640Y-97449640D01*
X149225000Y-97449640D01*
X149225000Y-96550480D01*
X149066250Y-96391730D01*
X148790348Y-96391730D01*
X148667667Y-96416133D01*
X148552105Y-96464000D01*
X148448101Y-96533493D01*
X148359653Y-96621941D01*
X148290160Y-96725945D01*
X148242293Y-96841507D01*
X148217890Y-96964188D01*
X147246683Y-96964188D01*
X147183841Y-96900906D01*
X146863797Y-96685033D01*
X146507918Y-96535436D01*
X146129760Y-96457811D01*
X145743726Y-96455116D01*
X145364522Y-96527453D01*
X145006589Y-96672067D01*
X144683562Y-96883450D01*
X144407745Y-97153550D01*
X144189643Y-97472079D01*
X144037565Y-97826905D01*
X143957302Y-98204512D01*
X143951912Y-98590517D01*
X143614109Y-98590517D01*
X143603707Y-98538227D01*
X143555840Y-98422665D01*
X143486347Y-98318661D01*
X143470499Y-98302813D01*
X143493759Y-98226135D01*
X143503567Y-98126550D01*
X143503567Y-97026730D01*
X143493759Y-96927145D01*
X143464711Y-96831387D01*
X143417539Y-96743135D01*
X143354058Y-96665782D01*
X143276705Y-96602301D01*
X143188453Y-96555129D01*
X143157174Y-96545641D01*
X143154339Y-96535883D01*
X143152618Y-96532562D01*
X143151537Y-96528983D01*
X143120701Y-96470988D01*
X143090463Y-96412653D01*
X143088130Y-96409730D01*
X143086374Y-96406428D01*
X143044849Y-96355513D01*
X143003867Y-96304176D01*
X142998735Y-96298972D01*
X142998647Y-96298864D01*
X142998547Y-96298782D01*
X142996895Y-96297106D01*
X142796631Y-96096842D01*
X142814736Y-96078737D01*
X142862414Y-96020692D01*
X142910652Y-95963205D01*
X142912711Y-95959460D01*
X142915424Y-95956157D01*
X142950902Y-95889991D01*
X142987073Y-95824196D01*
X142988366Y-95820121D01*
X142990385Y-95816355D01*
X143012333Y-95744567D01*
X143035038Y-95672991D01*
X143035515Y-95668743D01*
X143036764Y-95664656D01*
X143044350Y-95589977D01*
X143052721Y-95515348D01*
X143052779Y-95506993D01*
X143052795Y-95506837D01*
X143052781Y-95506692D01*
X143052800Y-95504000D01*
X143052800Y-95281750D01*
X143889730Y-95281750D01*
X143889730Y-95557652D01*
X143914133Y-95680333D01*
X143962000Y-95795895D01*
X144031493Y-95899899D01*
X144119941Y-95988347D01*
X144223945Y-96057840D01*
X144339507Y-96105707D01*
X144462188Y-96130110D01*
X144788890Y-96130110D01*
X144947640Y-95971360D01*
X144947640Y-95123000D01*
X144048480Y-95123000D01*
X143889730Y-95281750D01*
X143052800Y-95281750D01*
X143052800Y-94996000D01*
X143047661Y-94943586D01*
X143048035Y-94916771D01*
X143042085Y-94886721D01*
X143037320Y-94838126D01*
X143023207Y-94791381D01*
X143017257Y-94761332D01*
X143005584Y-94733012D01*
X142991471Y-94686266D01*
X142968548Y-94643154D01*
X142956874Y-94614831D01*
X142939921Y-94589315D01*
X142916998Y-94546203D01*
X142886137Y-94508363D01*
X142869185Y-94482849D01*
X142847602Y-94461115D01*
X142816739Y-94423273D01*
X142779112Y-94392146D01*
X142757531Y-94370413D01*
X142732140Y-94353287D01*
X142697949Y-94325001D01*
X143237250Y-94325001D01*
X143396000Y-94166251D01*
X143396000Y-93267001D01*
X142046750Y-93267001D01*
X141888000Y-93425751D01*
X141888000Y-93752543D01*
X141912403Y-93875224D01*
X141960270Y-93990786D01*
X142029763Y-94094790D01*
X142118211Y-94183238D01*
X142133467Y-94193432D01*
X142087696Y-94197597D01*
X142040858Y-94211382D01*
X142010764Y-94217123D01*
X141982358Y-94228600D01*
X141935520Y-94242385D01*
X141892253Y-94265004D01*
X141863845Y-94276482D01*
X141838208Y-94293258D01*
X141794941Y-94315878D01*
X141756889Y-94346473D01*
X141731254Y-94363248D01*
X141709366Y-94384683D01*
X141671314Y-94415277D01*
X141639931Y-94452678D01*
X141618041Y-94474114D01*
X141600732Y-94499393D01*
X141569348Y-94536795D01*
X141545826Y-94579581D01*
X141528518Y-94604859D01*
X141516450Y-94633016D01*
X141514796Y-94636025D01*
X141471595Y-94600571D01*
X141383343Y-94553399D01*
X141287585Y-94524351D01*
X141188000Y-94514543D01*
X140088000Y-94514543D01*
X139988415Y-94524351D01*
X139892657Y-94553399D01*
X139804405Y-94600571D01*
X139787999Y-94614035D01*
X139787006Y-94613220D01*
X141891782Y-92508444D01*
X141888000Y-92527459D01*
X141888000Y-92854251D01*
X142046750Y-93013001D01*
X143396000Y-93013001D01*
X143396000Y-92993001D01*
X143650000Y-92993001D01*
X143650000Y-93013001D01*
X144999250Y-93013001D01*
X145158000Y-92854251D01*
X145158000Y-92527459D01*
X145133597Y-92404778D01*
X145085730Y-92289216D01*
X145016237Y-92185212D01*
X144999669Y-92168644D01*
X145023651Y-92089585D01*
X145033459Y-91990000D01*
X145033459Y-90890000D01*
X145023651Y-90790415D01*
X144994603Y-90694657D01*
X144947431Y-90606405D01*
X144933967Y-90589999D01*
X144947429Y-90573595D01*
X144994601Y-90485343D01*
X145023649Y-90389585D01*
X145033457Y-90290000D01*
X145033457Y-89190000D01*
X145023649Y-89090415D01*
X144994601Y-88994657D01*
X144947429Y-88906405D01*
X144883948Y-88829052D01*
X144806595Y-88765571D01*
X144718343Y-88718399D01*
X144622585Y-88689351D01*
X144523000Y-88679543D01*
X142884975Y-88679543D01*
X144001281Y-88350996D01*
X145994597Y-88169590D01*
X147985187Y-88378809D01*
X147985187Y-88378809D01*
G37*
X147985187Y-88378809D02*
X148956698Y-88679542D01*
X147323000Y-88679542D01*
X147223415Y-88689350D01*
X147127657Y-88718398D01*
X147039405Y-88765570D01*
X146962052Y-88829051D01*
X146898571Y-88906404D01*
X146851399Y-88994656D01*
X146822351Y-89090414D01*
X146812543Y-89189999D01*
X146812543Y-90289999D01*
X146822351Y-90389584D01*
X146851399Y-90485342D01*
X146898571Y-90573594D01*
X146912033Y-90589998D01*
X146898569Y-90606405D01*
X146851397Y-90694657D01*
X146822349Y-90790415D01*
X146812541Y-90890000D01*
X146812541Y-91990000D01*
X146822349Y-92089585D01*
X146851397Y-92185343D01*
X146898569Y-92273595D01*
X146912033Y-92290001D01*
X146898571Y-92306405D01*
X146851399Y-92394657D01*
X146822351Y-92490415D01*
X146812543Y-92590000D01*
X146812543Y-93690000D01*
X146822351Y-93789585D01*
X146851399Y-93885343D01*
X146898571Y-93973595D01*
X146909107Y-93986433D01*
X146221450Y-93986433D01*
X146121865Y-93996241D01*
X146045187Y-94019501D01*
X146029339Y-94003653D01*
X145925335Y-93934160D01*
X145809773Y-93886293D01*
X145687092Y-93861890D01*
X145360390Y-93861890D01*
X145201642Y-94020638D01*
X145201642Y-93861890D01*
X145136249Y-93861890D01*
X145158000Y-93752543D01*
X145158000Y-93425751D01*
X144999250Y-93267001D01*
X143650000Y-93267001D01*
X143650000Y-94166251D01*
X143808750Y-94325001D01*
X143911481Y-94325001D01*
X143889730Y-94434348D01*
X143889730Y-94710250D01*
X144048480Y-94869000D01*
X144947640Y-94869000D01*
X144947640Y-94849000D01*
X145201640Y-94849000D01*
X145201640Y-94869000D01*
X145221640Y-94869000D01*
X145221640Y-95123000D01*
X145201640Y-95123000D01*
X145201640Y-95971360D01*
X145360390Y-96130110D01*
X145687092Y-96130110D01*
X145809773Y-96105707D01*
X145925335Y-96057840D01*
X146029339Y-95988347D01*
X146045187Y-95972499D01*
X146121865Y-95995759D01*
X146221450Y-96005567D01*
X147321270Y-96005567D01*
X147420855Y-95995759D01*
X147516613Y-95966711D01*
X147604865Y-95919539D01*
X147682218Y-95856058D01*
X147745699Y-95778705D01*
X147789650Y-95696479D01*
X147805826Y-95695064D01*
X147809421Y-95694020D01*
X147813139Y-95693655D01*
X147875990Y-95674679D01*
X147939117Y-95656339D01*
X147942438Y-95654618D01*
X147946017Y-95653537D01*
X148004012Y-95622701D01*
X148062347Y-95592463D01*
X148065270Y-95590130D01*
X148068572Y-95588374D01*
X148119487Y-95546849D01*
X148170824Y-95505867D01*
X148176024Y-95500738D01*
X148176136Y-95500647D01*
X148176222Y-95500543D01*
X148177894Y-95498894D01*
X148303499Y-95373289D01*
X148349420Y-95387329D01*
X148421009Y-95410038D01*
X148425259Y-95410515D01*
X148429345Y-95411764D01*
X148504017Y-95419349D01*
X148578652Y-95427721D01*
X148587007Y-95427779D01*
X148587163Y-95427795D01*
X148587308Y-95427781D01*
X148590000Y-95427800D01*
X149352000Y-95427800D01*
X149390552Y-95424020D01*
X149414289Y-95424517D01*
X149450375Y-95418154D01*
X149509874Y-95412320D01*
X149546958Y-95401124D01*
X149570339Y-95397001D01*
X149604499Y-95383751D01*
X149661734Y-95366471D01*
X149695939Y-95348284D01*
X149718072Y-95339699D01*
X149749009Y-95320066D01*
X149801797Y-95291998D01*
X149831814Y-95267517D01*
X149851862Y-95254794D01*
X149878399Y-95229523D01*
X149924727Y-95191739D01*
X149949418Y-95161892D01*
X149966612Y-95145519D01*
X149987734Y-95115577D01*
X150022999Y-95072949D01*
X150022999Y-95739250D01*
X150181749Y-95898000D01*
X151080999Y-95898000D01*
X151080999Y-94548750D01*
X150922249Y-94390000D01*
X150595457Y-94390000D01*
X150472776Y-94414403D01*
X150357214Y-94462270D01*
X150253210Y-94531763D01*
X150164762Y-94620211D01*
X150164741Y-94620243D01*
X150159638Y-94564177D01*
X150160035Y-94535771D01*
X150154517Y-94507905D01*
X150150403Y-94462696D01*
X150135620Y-94412469D01*
X150129257Y-94380332D01*
X150118432Y-94354069D01*
X150105615Y-94310520D01*
X150081360Y-94264125D01*
X150068874Y-94233831D01*
X150053152Y-94210167D01*
X150032122Y-94169941D01*
X149999318Y-94129141D01*
X149981185Y-94101849D01*
X149961166Y-94081690D01*
X149932723Y-94046314D01*
X149892619Y-94012662D01*
X149869531Y-93989413D01*
X149845979Y-93973527D01*
X149811205Y-93944348D01*
X149773996Y-93923892D01*
X149794601Y-93885343D01*
X149823649Y-93789585D01*
X149833457Y-93690000D01*
X149833457Y-92590000D01*
X149823649Y-92490415D01*
X149794601Y-92394657D01*
X149747429Y-92306405D01*
X149733965Y-92289999D01*
X149747427Y-92273595D01*
X149790739Y-92192565D01*
X152063787Y-94465613D01*
X152058784Y-94462270D01*
X151943222Y-94414403D01*
X151820541Y-94390000D01*
X151493749Y-94390000D01*
X151334999Y-94548750D01*
X151334999Y-95898000D01*
X151354999Y-95898000D01*
X151354999Y-96152000D01*
X151334999Y-96152000D01*
X151334999Y-97501250D01*
X151493749Y-97660000D01*
X151820541Y-97660000D01*
X151943222Y-97635597D01*
X152058784Y-97587730D01*
X152162788Y-97518237D01*
X152179356Y-97501669D01*
X152258415Y-97525651D01*
X152358000Y-97535459D01*
X153458000Y-97535459D01*
X153557585Y-97525651D01*
X153653343Y-97496603D01*
X153741595Y-97449431D01*
X153758001Y-97435967D01*
X153774405Y-97449429D01*
X153862657Y-97496601D01*
X153958415Y-97525649D01*
X154058000Y-97535457D01*
X155158000Y-97535457D01*
X155257585Y-97525649D01*
X155353343Y-97496601D01*
X155441595Y-97449429D01*
X155518948Y-97385948D01*
X155582429Y-97308595D01*
X155629601Y-97220343D01*
X155658649Y-97124585D01*
X155668457Y-97025000D01*
X155668457Y-95390047D01*
X155983343Y-96432999D01*
X156178660Y-98425000D01*
X156174661Y-98711355D01*
X155923800Y-100697126D01*
X155668458Y-101464713D01*
X155668458Y-99825000D01*
X155658650Y-99725415D01*
X155629602Y-99629657D01*
X155582430Y-99541405D01*
X155518949Y-99464052D01*
X155441596Y-99400571D01*
X155353344Y-99353399D01*
X155257586Y-99324351D01*
X155244740Y-99323086D01*
X155338922Y-99228904D01*
X155463139Y-99207001D01*
X155610872Y-99149699D01*
X155744662Y-99064794D01*
X155859412Y-98955519D01*
X155950752Y-98826036D01*
X156015202Y-98681279D01*
X156050308Y-98526759D01*
X156052835Y-98345771D01*
X156022057Y-98190332D01*
X155961674Y-98043831D01*
X155873985Y-97911849D01*
X155762331Y-97799413D01*
X155630964Y-97710805D01*
X155484888Y-97649400D01*
X155329668Y-97617538D01*
X155171215Y-97616431D01*
X155015564Y-97646123D01*
X154868645Y-97705482D01*
X154736054Y-97792248D01*
X154622841Y-97903114D01*
X154533318Y-98033859D01*
X154470895Y-98179503D01*
X154438132Y-98333642D01*
X154158987Y-98612787D01*
X154121713Y-98658165D01*
X154084053Y-98703046D01*
X154082447Y-98705968D01*
X154080324Y-98708552D01*
X154052579Y-98760297D01*
X154024349Y-98811647D01*
X154023340Y-98814829D01*
X154021761Y-98817773D01*
X154004616Y-98873854D01*
X153986876Y-98929776D01*
X153986503Y-98933097D01*
X153985528Y-98936288D01*
X153979603Y-98994616D01*
X153973062Y-99052934D01*
X153973016Y-99059462D01*
X153973004Y-99059584D01*
X153973015Y-99059697D01*
X153973000Y-99061800D01*
X153973000Y-99322915D01*
X153958416Y-99324351D01*
X153862658Y-99353399D01*
X153774406Y-99400571D01*
X153758002Y-99414033D01*
X153741595Y-99400569D01*
X153653343Y-99353397D01*
X153557585Y-99324349D01*
X153543000Y-99322913D01*
X153543000Y-98577400D01*
X153537273Y-98518994D01*
X153535711Y-98501136D01*
X153538235Y-98320371D01*
X153507457Y-98164932D01*
X153447074Y-98018431D01*
X153359385Y-97886449D01*
X153247731Y-97774013D01*
X153116364Y-97685405D01*
X152970288Y-97624000D01*
X152815068Y-97592138D01*
X152656615Y-97591031D01*
X152500964Y-97620723D01*
X152354045Y-97680082D01*
X152221454Y-97766848D01*
X152108241Y-97877714D01*
X152018718Y-98008459D01*
X151956295Y-98154103D01*
X151923350Y-98309097D01*
X151921137Y-98467539D01*
X151949742Y-98623393D01*
X152008074Y-98770722D01*
X152093911Y-98903916D01*
X152203985Y-99017901D01*
X152273000Y-99065867D01*
X152273000Y-99322913D01*
X152258415Y-99324349D01*
X152162657Y-99353397D01*
X152074405Y-99400569D01*
X152057999Y-99414033D01*
X152041595Y-99400571D01*
X151953343Y-99353399D01*
X151857585Y-99324351D01*
X151758000Y-99314543D01*
X150658000Y-99314543D01*
X150558415Y-99324351D01*
X150462657Y-99353399D01*
X150374405Y-99400571D01*
X150361567Y-99411107D01*
X150361567Y-98723450D01*
X150351759Y-98623865D01*
X150328499Y-98547187D01*
X150344347Y-98531339D01*
X150413840Y-98427335D01*
X150461707Y-98311773D01*
X150486110Y-98189092D01*
X150486110Y-97862390D01*
X150327362Y-97703642D01*
X150486110Y-97703642D01*
X150486110Y-97638249D01*
X150595457Y-97660000D01*
X150922249Y-97660000D01*
X151080999Y-97501250D01*
X151080999Y-96152000D01*
X150181749Y-96152000D01*
X150022999Y-96310750D01*
X150022999Y-96413481D01*
X149913652Y-96391730D01*
X149637750Y-96391730D01*
X149479000Y-96550480D01*
X149479000Y-97449640D01*
X149499000Y-97449640D01*
X149499000Y-97703640D01*
X149479000Y-97703640D01*
X149479000Y-97723640D01*
X149225000Y-97723640D01*
X149225000Y-97703640D01*
X148376640Y-97703640D01*
X148217890Y-97862390D01*
X148217890Y-98189092D01*
X148242293Y-98311773D01*
X148290160Y-98427335D01*
X148359653Y-98531339D01*
X148375501Y-98547187D01*
X148352241Y-98623865D01*
X148342433Y-98723450D01*
X148342433Y-99823270D01*
X148352241Y-99922855D01*
X148381289Y-100018613D01*
X148428461Y-100106865D01*
X148491942Y-100184218D01*
X148569295Y-100247699D01*
X148657547Y-100294871D01*
X148688826Y-100304359D01*
X148691661Y-100314117D01*
X148693382Y-100317438D01*
X148694463Y-100321017D01*
X148725299Y-100379012D01*
X148755537Y-100437347D01*
X148757870Y-100440270D01*
X148759626Y-100443572D01*
X148801151Y-100494487D01*
X148842133Y-100545824D01*
X148847262Y-100551024D01*
X148847353Y-100551136D01*
X148847457Y-100551222D01*
X148849106Y-100552894D01*
X149060047Y-100763835D01*
X149057576Y-100766843D01*
X149022098Y-100833009D01*
X148985927Y-100898804D01*
X148984634Y-100902879D01*
X148982615Y-100906645D01*
X148960671Y-100978420D01*
X148937962Y-101050009D01*
X148937485Y-101054259D01*
X148936236Y-101058345D01*
X148928651Y-101133017D01*
X148920279Y-101207652D01*
X148920221Y-101216007D01*
X148920205Y-101216163D01*
X148920219Y-101216308D01*
X148920200Y-101219000D01*
X148920200Y-101600000D01*
X148924302Y-101641831D01*
X148923937Y-101667939D01*
X148930216Y-101702151D01*
X148935680Y-101757874D01*
X148947829Y-101798113D01*
X148952542Y-101823793D01*
X148965345Y-101856129D01*
X148981529Y-101909734D01*
X149001264Y-101946850D01*
X149010874Y-101971122D01*
X149029713Y-102000354D01*
X149056002Y-102049797D01*
X149082568Y-102082370D01*
X149096711Y-102104316D01*
X149120871Y-102129334D01*
X149156261Y-102172727D01*
X149188649Y-102199521D01*
X149206785Y-102218301D01*
X149235342Y-102238148D01*
X149278488Y-102273842D01*
X149315467Y-102293836D01*
X149336902Y-102308734D01*
X149368768Y-102322656D01*
X149418027Y-102349290D01*
X149458184Y-102361721D01*
X149482106Y-102372172D01*
X149516069Y-102379639D01*
X149569564Y-102396199D01*
X149611369Y-102400593D01*
X149636867Y-102406199D01*
X149671640Y-102406927D01*
X149727326Y-102412780D01*
X149769188Y-102408970D01*
X149795289Y-102409517D01*
X149829537Y-102403478D01*
X149885304Y-102398403D01*
X149925631Y-102386534D01*
X149951339Y-102382001D01*
X149983760Y-102369426D01*
X150037480Y-102353615D01*
X150074734Y-102334139D01*
X150099072Y-102324699D01*
X150128435Y-102306065D01*
X150178059Y-102280122D01*
X150210815Y-102253785D01*
X150232862Y-102239794D01*
X150258053Y-102215805D01*
X150296311Y-102185045D01*
X150297052Y-102185948D01*
X150374405Y-102249429D01*
X150462657Y-102296601D01*
X150558415Y-102325649D01*
X150658000Y-102335457D01*
X151758000Y-102335457D01*
X151857585Y-102325649D01*
X151953343Y-102296601D01*
X152041595Y-102249429D01*
X152058001Y-102235965D01*
X152074405Y-102249427D01*
X152162657Y-102296599D01*
X152258415Y-102325647D01*
X152358000Y-102335455D01*
X153458000Y-102335455D01*
X153557585Y-102325647D01*
X153653343Y-102296599D01*
X153741595Y-102249427D01*
X153757999Y-102235965D01*
X153774406Y-102249429D01*
X153862658Y-102296601D01*
X153958416Y-102325649D01*
X154058001Y-102335457D01*
X155158001Y-102335457D01*
X155257586Y-102325649D01*
X155353344Y-102296601D01*
X155400027Y-102271648D01*
X155292012Y-102596353D01*
X154303360Y-104336694D01*
X152995504Y-105851860D01*
X151418257Y-107084140D01*
X151320511Y-107133515D01*
X152621122Y-105832904D01*
X152745339Y-105811001D01*
X152893072Y-105753699D01*
X153026862Y-105668794D01*
X153141612Y-105559519D01*
X153232952Y-105430036D01*
X153297402Y-105285279D01*
X153332508Y-105130759D01*
X153335035Y-104949771D01*
X153304257Y-104794332D01*
X153243874Y-104647831D01*
X153156185Y-104515849D01*
X153044531Y-104403413D01*
X152913164Y-104314805D01*
X152767088Y-104253400D01*
X152611868Y-104221538D01*
X152453415Y-104220431D01*
X152297764Y-104250123D01*
X152150845Y-104309482D01*
X152018254Y-104396248D01*
X151905041Y-104507114D01*
X151815518Y-104637859D01*
X151753095Y-104783503D01*
X151720332Y-104937642D01*
X150182974Y-106475000D01*
X149825085Y-106475000D01*
X149823649Y-106460415D01*
X149794601Y-106364657D01*
X149747429Y-106276405D01*
X149733965Y-106259999D01*
X149747427Y-106243595D01*
X149794599Y-106155343D01*
X149823647Y-106059585D01*
X149825083Y-106045000D01*
X149910800Y-106045000D01*
X149969206Y-106039273D01*
X150027609Y-106034164D01*
X150030813Y-106033233D01*
X150034139Y-106032907D01*
X150090348Y-106015937D01*
X150146619Y-105999588D01*
X150149580Y-105998053D01*
X150152780Y-105997087D01*
X150204593Y-105969538D01*
X150256646Y-105942556D01*
X150259256Y-105940473D01*
X150262204Y-105938905D01*
X150307657Y-105901835D01*
X150353500Y-105865238D01*
X150358150Y-105860653D01*
X150358243Y-105860577D01*
X150358314Y-105860491D01*
X150359813Y-105859013D01*
X151172613Y-105046213D01*
X151209887Y-105000835D01*
X151247547Y-104955954D01*
X151249153Y-104953032D01*
X151251276Y-104950448D01*
X151279021Y-104898703D01*
X151307251Y-104847353D01*
X151308260Y-104844171D01*
X151309839Y-104841227D01*
X151326997Y-104785105D01*
X151344724Y-104729224D01*
X151345096Y-104725908D01*
X151346073Y-104722712D01*
X151352002Y-104664335D01*
X151358538Y-104606066D01*
X151358584Y-104599538D01*
X151358596Y-104599416D01*
X151358585Y-104599303D01*
X151358600Y-104597200D01*
X151358600Y-103803417D01*
X151429552Y-103702836D01*
X151494002Y-103558079D01*
X151529108Y-103403559D01*
X151531635Y-103222571D01*
X151500857Y-103067132D01*
X151440474Y-102920631D01*
X151352785Y-102788649D01*
X151241131Y-102676213D01*
X151109764Y-102587605D01*
X150963688Y-102526200D01*
X150808468Y-102494338D01*
X150650015Y-102493231D01*
X150494364Y-102522923D01*
X150347445Y-102582282D01*
X150214854Y-102669048D01*
X150101641Y-102779914D01*
X150012118Y-102910659D01*
X149949776Y-103056114D01*
X149933597Y-102974776D01*
X149885730Y-102859214D01*
X149816237Y-102755210D01*
X149727789Y-102666762D01*
X149623785Y-102597269D01*
X149508223Y-102549402D01*
X149385542Y-102524999D01*
X148608750Y-102524999D01*
X148450000Y-102683749D01*
X148450000Y-103582999D01*
X149799250Y-103582999D01*
X149929730Y-103452519D01*
X149943142Y-103525593D01*
X150001474Y-103672922D01*
X150087311Y-103806116D01*
X150088600Y-103807451D01*
X150088600Y-104334174D01*
X149902517Y-104520257D01*
X149933597Y-104445222D01*
X149958000Y-104322541D01*
X149958000Y-103995749D01*
X149799250Y-103836999D01*
X148450000Y-103836999D01*
X148450000Y-103856999D01*
X148196000Y-103856999D01*
X148196000Y-103836999D01*
X146846750Y-103836999D01*
X146693811Y-103989938D01*
X145839136Y-103135264D01*
X145781117Y-103087606D01*
X145723605Y-103039348D01*
X145719860Y-103037289D01*
X145716557Y-103034576D01*
X145650391Y-102999098D01*
X145584596Y-102962927D01*
X145580521Y-102961634D01*
X145576755Y-102959615D01*
X145504980Y-102937671D01*
X145433391Y-102914962D01*
X145429141Y-102914485D01*
X145425055Y-102913236D01*
X145350383Y-102905651D01*
X145275748Y-102897279D01*
X145267393Y-102897221D01*
X145267237Y-102897205D01*
X145267092Y-102897219D01*
X145264400Y-102897200D01*
X144958544Y-102897200D01*
X144947429Y-102876405D01*
X144936893Y-102863567D01*
X145624550Y-102863567D01*
X145724135Y-102853759D01*
X145800813Y-102830499D01*
X145816661Y-102846347D01*
X145920665Y-102915840D01*
X146036227Y-102963707D01*
X146158908Y-102988110D01*
X146485610Y-102988110D01*
X146644358Y-102829362D01*
X146644358Y-102988110D01*
X146709751Y-102988110D01*
X146688000Y-103097457D01*
X146688000Y-103424249D01*
X146846750Y-103582999D01*
X148196000Y-103582999D01*
X148196000Y-102683749D01*
X148037250Y-102524999D01*
X147934519Y-102524999D01*
X147956270Y-102415652D01*
X147956270Y-102139750D01*
X147797520Y-101981000D01*
X146898360Y-101981000D01*
X146898360Y-102001000D01*
X146644360Y-102001000D01*
X146644360Y-101981000D01*
X146624360Y-101981000D01*
X146624360Y-101727000D01*
X146644360Y-101727000D01*
X146644360Y-100878640D01*
X146898360Y-100878640D01*
X146898360Y-101727000D01*
X147797520Y-101727000D01*
X147956270Y-101568250D01*
X147956270Y-101292348D01*
X147931867Y-101169667D01*
X147884000Y-101054105D01*
X147814507Y-100950101D01*
X147726059Y-100861653D01*
X147622055Y-100792160D01*
X147506493Y-100744293D01*
X147383812Y-100719890D01*
X147057110Y-100719890D01*
X146898360Y-100878640D01*
X146644360Y-100878640D01*
X146485610Y-100719890D01*
X146158908Y-100719890D01*
X146036227Y-100744293D01*
X145920665Y-100792160D01*
X145816661Y-100861653D01*
X145800813Y-100877501D01*
X145724135Y-100854241D01*
X145624550Y-100844433D01*
X144524730Y-100844433D01*
X144425145Y-100854241D01*
X144329387Y-100883289D01*
X144241135Y-100930461D01*
X144163782Y-100993942D01*
X144100301Y-101071295D01*
X144062081Y-101142800D01*
X144018000Y-101142800D01*
X143952699Y-101149203D01*
X143887174Y-101154936D01*
X143883579Y-101155980D01*
X143879861Y-101156345D01*
X143817010Y-101175321D01*
X143753883Y-101193661D01*
X143750562Y-101195382D01*
X143746983Y-101196463D01*
X143688988Y-101227299D01*
X143630653Y-101257537D01*
X143627730Y-101259870D01*
X143624428Y-101261626D01*
X143573513Y-101303151D01*
X143522176Y-101344133D01*
X143516972Y-101349265D01*
X143516864Y-101349353D01*
X143516782Y-101349453D01*
X143515106Y-101351105D01*
X143020106Y-101846106D01*
X142978442Y-101896828D01*
X142936179Y-101947195D01*
X142934377Y-101950474D01*
X142932004Y-101953362D01*
X142900960Y-102011258D01*
X142869311Y-102068829D01*
X142868181Y-102072392D01*
X142866413Y-102075689D01*
X142847208Y-102138504D01*
X142827341Y-102201133D01*
X142826924Y-102204851D01*
X142825831Y-102208426D01*
X142819193Y-102273772D01*
X142811869Y-102339070D01*
X142811818Y-102346377D01*
X142811804Y-102346517D01*
X142811816Y-102346648D01*
X142811800Y-102349000D01*
X142811800Y-102649543D01*
X142523000Y-102649543D01*
X142423415Y-102659351D01*
X142327657Y-102688399D01*
X142239405Y-102735571D01*
X142162052Y-102799052D01*
X142098571Y-102876405D01*
X142051399Y-102964657D01*
X142022351Y-103060415D01*
X142012543Y-103160000D01*
X142012543Y-104260000D01*
X142022351Y-104359585D01*
X142051399Y-104455343D01*
X142098571Y-104543595D01*
X142112035Y-104560001D01*
X142098573Y-104576405D01*
X142072956Y-104624330D01*
X139871103Y-102422477D01*
X139902778Y-102435597D01*
X140025459Y-102460000D01*
X140352251Y-102460000D01*
X140511001Y-102301250D01*
X140511001Y-100952000D01*
X140765001Y-100952000D01*
X140765001Y-102301250D01*
X140923751Y-102460000D01*
X141250543Y-102460000D01*
X141373224Y-102435597D01*
X141488786Y-102387730D01*
X141592790Y-102318237D01*
X141681238Y-102229789D01*
X141750731Y-102125785D01*
X141798598Y-102010223D01*
X141823001Y-101887542D01*
X141823001Y-101110750D01*
X141664251Y-100952000D01*
X140765001Y-100952000D01*
X140511001Y-100952000D01*
X140491001Y-100952000D01*
X140491001Y-100698000D01*
X140511001Y-100698000D01*
X140511001Y-99348750D01*
X140352251Y-99190000D01*
X140025459Y-99190000D01*
X139902778Y-99214403D01*
X139787216Y-99262270D01*
X139683212Y-99331763D01*
X139666644Y-99348331D01*
X139587585Y-99324349D01*
X139488000Y-99314541D01*
X138388000Y-99314541D01*
X138288415Y-99324349D01*
X138192657Y-99353397D01*
X138104405Y-99400569D01*
X138087999Y-99414033D01*
X138071595Y-99400571D01*
X137983343Y-99353399D01*
X137887585Y-99324351D01*
X137788000Y-99314543D01*
X136688000Y-99314543D01*
X136588415Y-99324351D01*
X136492657Y-99353399D01*
X136404405Y-99400571D01*
X136327052Y-99464052D01*
X136263571Y-99541405D01*
X136216399Y-99629657D01*
X136187351Y-99725415D01*
X136177543Y-99825000D01*
X136177543Y-101468055D01*
X135835825Y-100276343D01*
X135668340Y-98281809D01*
X135891451Y-96292728D01*
X136177542Y-95390854D01*
X136177542Y-97025000D01*
X136187350Y-97124585D01*
X136216398Y-97220343D01*
X136263570Y-97308595D01*
X136327051Y-97385948D01*
X136404404Y-97449429D01*
X136492656Y-97496601D01*
X136588414Y-97525649D01*
X136687999Y-97535457D01*
X137787999Y-97535457D01*
X137887584Y-97525649D01*
X137983342Y-97496601D01*
X138071594Y-97449429D01*
X138087998Y-97435967D01*
X138104405Y-97449431D01*
X138192657Y-97496603D01*
X138288415Y-97525651D01*
X138388000Y-97535459D01*
X139488000Y-97535459D01*
X139587585Y-97525651D01*
X139683343Y-97496603D01*
X139771595Y-97449431D01*
X139788001Y-97435967D01*
X139804405Y-97449429D01*
X139892657Y-97496601D01*
X139988415Y-97525649D01*
X140088000Y-97535457D01*
X141188000Y-97535457D01*
X141287585Y-97525649D01*
X141383343Y-97496601D01*
X141471595Y-97449429D01*
X141484433Y-97438893D01*
X141484433Y-98126550D01*
X141494241Y-98226135D01*
X141517501Y-98302813D01*
X141501653Y-98318661D01*
X141432160Y-98422665D01*
X141384293Y-98538227D01*
X141359890Y-98660908D01*
X141359890Y-98987610D01*
X141518638Y-99146358D01*
X141359890Y-99146358D01*
X141359890Y-99211751D01*
X141250543Y-99190000D01*
X140923751Y-99190000D01*
X140765001Y-99348750D01*
X140765001Y-100698000D01*
X141664251Y-100698000D01*
X141823001Y-100539250D01*
X141823001Y-100436519D01*
X141932348Y-100458270D01*
X142208250Y-100458270D01*
X142367000Y-100299520D01*
X142367000Y-99400360D01*
X142621000Y-99400360D01*
X142621000Y-100299520D01*
X142779750Y-100458270D01*
X143055652Y-100458270D01*
X143178333Y-100433867D01*
X143293895Y-100386000D01*
X143397899Y-100316507D01*
X143486347Y-100228059D01*
X143555840Y-100124055D01*
X143603707Y-100008493D01*
X143628110Y-99885812D01*
X143628110Y-99559110D01*
X143469360Y-99400360D01*
X142621000Y-99400360D01*
X142367000Y-99400360D01*
X142347000Y-99400360D01*
X142347000Y-99146360D01*
X142367000Y-99146360D01*
X142367000Y-99126360D01*
X142621000Y-99126360D01*
X142621000Y-99146360D01*
X143469360Y-99146360D01*
X143628110Y-98987610D01*
X143628110Y-98660908D01*
X143614109Y-98590517D01*
X143951912Y-98590517D01*
X144021600Y-98970218D01*
X144163712Y-99329151D01*
X144372835Y-99653646D01*
X144641003Y-99931342D01*
X144958001Y-100151662D01*
X145311757Y-100306214D01*
X145688794Y-100389111D01*
X146074752Y-100397195D01*
X146454930Y-100330160D01*
X146814847Y-100190557D01*
X147140794Y-99983705D01*
X147420355Y-99717482D01*
X147642883Y-99402029D01*
X147799900Y-99049362D01*
X147885428Y-98672912D01*
X147891585Y-98231979D01*
X147816602Y-97853288D01*
X147669492Y-97496374D01*
X147455860Y-97174830D01*
X147246683Y-96964188D01*
X148217890Y-96964188D01*
X148217890Y-97290890D01*
X148376640Y-97449640D01*
X149225000Y-97449640D01*
X149225000Y-96550480D01*
X149066250Y-96391730D01*
X148790348Y-96391730D01*
X148667667Y-96416133D01*
X148552105Y-96464000D01*
X148448101Y-96533493D01*
X148359653Y-96621941D01*
X148290160Y-96725945D01*
X148242293Y-96841507D01*
X148217890Y-96964188D01*
X147246683Y-96964188D01*
X147183841Y-96900906D01*
X146863797Y-96685033D01*
X146507918Y-96535436D01*
X146129760Y-96457811D01*
X145743726Y-96455116D01*
X145364522Y-96527453D01*
X145006589Y-96672067D01*
X144683562Y-96883450D01*
X144407745Y-97153550D01*
X144189643Y-97472079D01*
X144037565Y-97826905D01*
X143957302Y-98204512D01*
X143951912Y-98590517D01*
X143614109Y-98590517D01*
X143603707Y-98538227D01*
X143555840Y-98422665D01*
X143486347Y-98318661D01*
X143470499Y-98302813D01*
X143493759Y-98226135D01*
X143503567Y-98126550D01*
X143503567Y-97026730D01*
X143493759Y-96927145D01*
X143464711Y-96831387D01*
X143417539Y-96743135D01*
X143354058Y-96665782D01*
X143276705Y-96602301D01*
X143188453Y-96555129D01*
X143157174Y-96545641D01*
X143154339Y-96535883D01*
X143152618Y-96532562D01*
X143151537Y-96528983D01*
X143120701Y-96470988D01*
X143090463Y-96412653D01*
X143088130Y-96409730D01*
X143086374Y-96406428D01*
X143044849Y-96355513D01*
X143003867Y-96304176D01*
X142998735Y-96298972D01*
X142998647Y-96298864D01*
X142998547Y-96298782D01*
X142996895Y-96297106D01*
X142796631Y-96096842D01*
X142814736Y-96078737D01*
X142862414Y-96020692D01*
X142910652Y-95963205D01*
X142912711Y-95959460D01*
X142915424Y-95956157D01*
X142950902Y-95889991D01*
X142987073Y-95824196D01*
X142988366Y-95820121D01*
X142990385Y-95816355D01*
X143012333Y-95744567D01*
X143035038Y-95672991D01*
X143035515Y-95668743D01*
X143036764Y-95664656D01*
X143044350Y-95589977D01*
X143052721Y-95515348D01*
X143052779Y-95506993D01*
X143052795Y-95506837D01*
X143052781Y-95506692D01*
X143052800Y-95504000D01*
X143052800Y-95281750D01*
X143889730Y-95281750D01*
X143889730Y-95557652D01*
X143914133Y-95680333D01*
X143962000Y-95795895D01*
X144031493Y-95899899D01*
X144119941Y-95988347D01*
X144223945Y-96057840D01*
X144339507Y-96105707D01*
X144462188Y-96130110D01*
X144788890Y-96130110D01*
X144947640Y-95971360D01*
X144947640Y-95123000D01*
X144048480Y-95123000D01*
X143889730Y-95281750D01*
X143052800Y-95281750D01*
X143052800Y-94996000D01*
X143047661Y-94943586D01*
X143048035Y-94916771D01*
X143042085Y-94886721D01*
X143037320Y-94838126D01*
X143023207Y-94791381D01*
X143017257Y-94761332D01*
X143005584Y-94733012D01*
X142991471Y-94686266D01*
X142968548Y-94643154D01*
X142956874Y-94614831D01*
X142939921Y-94589315D01*
X142916998Y-94546203D01*
X142886137Y-94508363D01*
X142869185Y-94482849D01*
X142847602Y-94461115D01*
X142816739Y-94423273D01*
X142779112Y-94392146D01*
X142757531Y-94370413D01*
X142732140Y-94353287D01*
X142697949Y-94325001D01*
X143237250Y-94325001D01*
X143396000Y-94166251D01*
X143396000Y-93267001D01*
X142046750Y-93267001D01*
X141888000Y-93425751D01*
X141888000Y-93752543D01*
X141912403Y-93875224D01*
X141960270Y-93990786D01*
X142029763Y-94094790D01*
X142118211Y-94183238D01*
X142133467Y-94193432D01*
X142087696Y-94197597D01*
X142040858Y-94211382D01*
X142010764Y-94217123D01*
X141982358Y-94228600D01*
X141935520Y-94242385D01*
X141892253Y-94265004D01*
X141863845Y-94276482D01*
X141838208Y-94293258D01*
X141794941Y-94315878D01*
X141756889Y-94346473D01*
X141731254Y-94363248D01*
X141709366Y-94384683D01*
X141671314Y-94415277D01*
X141639931Y-94452678D01*
X141618041Y-94474114D01*
X141600732Y-94499393D01*
X141569348Y-94536795D01*
X141545826Y-94579581D01*
X141528518Y-94604859D01*
X141516450Y-94633016D01*
X141514796Y-94636025D01*
X141471595Y-94600571D01*
X141383343Y-94553399D01*
X141287585Y-94524351D01*
X141188000Y-94514543D01*
X140088000Y-94514543D01*
X139988415Y-94524351D01*
X139892657Y-94553399D01*
X139804405Y-94600571D01*
X139787999Y-94614035D01*
X139787006Y-94613220D01*
X141891782Y-92508444D01*
X141888000Y-92527459D01*
X141888000Y-92854251D01*
X142046750Y-93013001D01*
X143396000Y-93013001D01*
X143396000Y-92993001D01*
X143650000Y-92993001D01*
X143650000Y-93013001D01*
X144999250Y-93013001D01*
X145158000Y-92854251D01*
X145158000Y-92527459D01*
X145133597Y-92404778D01*
X145085730Y-92289216D01*
X145016237Y-92185212D01*
X144999669Y-92168644D01*
X145023651Y-92089585D01*
X145033459Y-91990000D01*
X145033459Y-90890000D01*
X145023651Y-90790415D01*
X144994603Y-90694657D01*
X144947431Y-90606405D01*
X144933967Y-90589999D01*
X144947429Y-90573595D01*
X144994601Y-90485343D01*
X145023649Y-90389585D01*
X145033457Y-90290000D01*
X145033457Y-89190000D01*
X145023649Y-89090415D01*
X144994601Y-88994657D01*
X144947429Y-88906405D01*
X144883948Y-88829052D01*
X144806595Y-88765571D01*
X144718343Y-88718399D01*
X144622585Y-88689351D01*
X144523000Y-88679543D01*
X142884975Y-88679543D01*
X144001281Y-88350996D01*
X145994597Y-88169590D01*
X147985187Y-88378809D01*
M02*
