G04 #@! TF.GenerationSoftware,KiCad,Pcbnew,no-vcs-found-5013ea2~58~ubuntu16.04.1*
G04 #@! TF.CreationDate,2017-05-24T10:35:15-06:00*
G04 #@! TF.ProjectId,HiBeam_4-pack_v02,48694265616D5F342D7061636B5F7630,rev?*
G04 #@! TF.FileFunction,Legend,Top*
G04 #@! TF.FilePolarity,Positive*
%FSLAX46Y46*%
G04 Gerber Fmt 4.6, Leading zero omitted, Abs format (unit mm)*
G04 Created by KiCad (PCBNEW no-vcs-found-5013ea2~58~ubuntu16.04.1) date Wed May 24 10:35:15 2017*
%MOMM*%
%LPD*%
G01*
G04 APERTURE LIST*
%ADD10C,0.100000*%
%ADD11C,0.200000*%
%ADD12C,0.203200*%
%ADD13C,0.150000*%
%ADD14C,0.010000*%
%ADD15C,0.066040*%
G04 APERTURE END LIST*
D10*
D11*
X142224776Y-89890600D02*
G75*
G03X142224776Y-89890600I-797576J0D01*
G01*
X155254976Y-93929200D02*
G75*
G03X155254976Y-93929200I-797576J0D01*
G01*
X151237721Y-106959400D02*
G75*
G03X151237721Y-106959400I-793521J0D01*
G01*
X138179679Y-102946200D02*
G75*
G03X138179679Y-102946200I-791079J0D01*
G01*
D12*
X154334028Y-93799780D02*
X154875895Y-93799780D01*
X154024390Y-93993304D02*
X154604961Y-94186828D01*
X154604961Y-93683666D01*
X141181666Y-89496295D02*
X141684828Y-89496295D01*
X141413895Y-89805933D01*
X141530009Y-89805933D01*
X141607419Y-89844638D01*
X141646123Y-89883342D01*
X141684828Y-89960752D01*
X141684828Y-90154276D01*
X141646123Y-90231685D01*
X141607419Y-90270390D01*
X141530009Y-90309095D01*
X141297780Y-90309095D01*
X141220371Y-90270390D01*
X141181666Y-90231685D01*
X137020904Y-103153028D02*
X136982200Y-103114323D01*
X136943495Y-103036914D01*
X136943495Y-102843390D01*
X136982200Y-102765980D01*
X137020904Y-102727276D01*
X137098314Y-102688571D01*
X137175723Y-102688571D01*
X137291838Y-102727276D01*
X137756295Y-103191733D01*
X137756295Y-102688571D01*
X150211971Y-106591704D02*
X150676428Y-106591704D01*
X150444200Y-106591704D02*
X150444200Y-107404504D01*
X150521609Y-107288390D01*
X150599019Y-107210980D01*
X150676428Y-107172276D01*
X148423000Y-93940000D02*
X143423000Y-93940000D01*
X148423000Y-88940000D02*
X143423000Y-88940000D01*
D13*
X143738953Y-88392000D02*
G75*
G03X143738953Y-88392000I-228953J0D01*
G01*
X143599803Y-88392000D02*
G75*
G03X143599803Y-88392000I-89803J0D01*
G01*
D12*
X150408000Y-100925000D02*
X150408000Y-95925000D01*
X155408000Y-100925000D02*
X155408000Y-95925000D01*
D13*
X156184953Y-96012000D02*
G75*
G03X156184953Y-96012000I-228953J0D01*
G01*
X156045803Y-96012000D02*
G75*
G03X156045803Y-96012000I-89803J0D01*
G01*
D12*
X143423000Y-102910000D02*
X148423000Y-102910000D01*
X143423000Y-107910000D02*
X148423000Y-107910000D01*
D13*
X148564953Y-108458000D02*
G75*
G03X148564953Y-108458000I-228953J0D01*
G01*
X148425803Y-108458000D02*
G75*
G03X148425803Y-108458000I-89803J0D01*
G01*
D12*
X141438000Y-95925000D02*
X141438000Y-100925000D01*
X136438000Y-95925000D02*
X136438000Y-100925000D01*
D13*
X136118953Y-100838000D02*
G75*
G03X136118953Y-100838000I-228953J0D01*
G01*
X135979803Y-100838000D02*
G75*
G03X135979803Y-100838000I-89803J0D01*
G01*
D14*
G36*
X152770888Y-92862628D02*
X152706231Y-92927286D01*
X152679290Y-92939858D01*
X152657737Y-92947042D01*
X152614632Y-92947042D01*
X152585895Y-92932674D01*
X152564343Y-92911121D01*
X152523033Y-92841075D01*
X152508665Y-92797970D01*
X152501481Y-92762049D01*
X152494297Y-92715352D01*
X152494297Y-92629141D01*
X152508665Y-92557299D01*
X152528422Y-92523174D01*
X152571527Y-92480069D01*
X152600264Y-92465701D01*
X152621816Y-92458517D01*
X152655941Y-92453128D01*
X152706231Y-92460313D01*
X152749336Y-92474681D01*
X152790645Y-92501622D01*
X152826566Y-92523174D01*
X152869671Y-92566280D01*
X152876855Y-92587832D01*
X152882244Y-92593220D01*
X152884040Y-92580648D01*
X152876855Y-92530359D01*
X152826566Y-92383082D01*
X152776277Y-92304056D01*
X152706231Y-92234010D01*
X152614632Y-92171148D01*
X152494297Y-92133431D01*
X152381145Y-92120859D01*
X152289547Y-92140615D01*
X152203336Y-92183721D01*
X152147659Y-92239398D01*
X152097369Y-92318425D01*
X152070428Y-92417207D01*
X152061448Y-92523174D01*
X152056060Y-92643510D01*
X152056060Y-92744089D01*
X152020139Y-92819523D01*
X151969850Y-92869812D01*
X151914172Y-92896753D01*
X151851310Y-92905733D01*
X151779468Y-92891365D01*
X151709422Y-92850056D01*
X151651949Y-92792582D01*
X151623212Y-92749477D01*
X151603455Y-92700983D01*
X151603455Y-92614773D01*
X151610639Y-92578852D01*
X151625008Y-92550115D01*
X151651949Y-92523174D01*
X151680685Y-92508806D01*
X151766896Y-92508806D01*
X151795633Y-92523174D01*
X151836942Y-92535747D01*
X151849514Y-92537543D01*
X151836942Y-92496234D01*
X151750731Y-92410023D01*
X151702238Y-92375898D01*
X151659133Y-92347161D01*
X151610639Y-92323813D01*
X151562146Y-92318425D01*
X151497488Y-92311240D01*
X151384337Y-92338181D01*
X151319679Y-92374102D01*
X151256817Y-92422596D01*
X150286950Y-93392463D01*
X150358792Y-93392463D01*
X150416265Y-93378095D01*
X150486311Y-93379891D01*
X150563542Y-93370911D01*
X150734166Y-93372707D01*
X150917364Y-93358338D01*
X151059252Y-93356542D01*
X151172403Y-93387075D01*
X151220896Y-93421200D01*
X151355600Y-93555904D01*
X151454383Y-93625950D01*
X151554962Y-93683423D01*
X151653745Y-93724733D01*
X151765100Y-93753469D01*
X151872863Y-93760654D01*
X151984218Y-93760654D01*
X152099165Y-93746285D01*
X152296731Y-93688812D01*
X152465560Y-93591825D01*
X152593079Y-93478674D01*
X152684678Y-93343970D01*
X152754724Y-93202082D01*
X152785257Y-93074562D01*
X152790645Y-92954227D01*
X152770888Y-92862628D01*
G37*
X152770888Y-92862628D02*
X152706231Y-92927286D01*
X152679290Y-92939858D01*
X152657737Y-92947042D01*
X152614632Y-92947042D01*
X152585895Y-92932674D01*
X152564343Y-92911121D01*
X152523033Y-92841075D01*
X152508665Y-92797970D01*
X152501481Y-92762049D01*
X152494297Y-92715352D01*
X152494297Y-92629141D01*
X152508665Y-92557299D01*
X152528422Y-92523174D01*
X152571527Y-92480069D01*
X152600264Y-92465701D01*
X152621816Y-92458517D01*
X152655941Y-92453128D01*
X152706231Y-92460313D01*
X152749336Y-92474681D01*
X152790645Y-92501622D01*
X152826566Y-92523174D01*
X152869671Y-92566280D01*
X152876855Y-92587832D01*
X152882244Y-92593220D01*
X152884040Y-92580648D01*
X152876855Y-92530359D01*
X152826566Y-92383082D01*
X152776277Y-92304056D01*
X152706231Y-92234010D01*
X152614632Y-92171148D01*
X152494297Y-92133431D01*
X152381145Y-92120859D01*
X152289547Y-92140615D01*
X152203336Y-92183721D01*
X152147659Y-92239398D01*
X152097369Y-92318425D01*
X152070428Y-92417207D01*
X152061448Y-92523174D01*
X152056060Y-92643510D01*
X152056060Y-92744089D01*
X152020139Y-92819523D01*
X151969850Y-92869812D01*
X151914172Y-92896753D01*
X151851310Y-92905733D01*
X151779468Y-92891365D01*
X151709422Y-92850056D01*
X151651949Y-92792582D01*
X151623212Y-92749477D01*
X151603455Y-92700983D01*
X151603455Y-92614773D01*
X151610639Y-92578852D01*
X151625008Y-92550115D01*
X151651949Y-92523174D01*
X151680685Y-92508806D01*
X151766896Y-92508806D01*
X151795633Y-92523174D01*
X151836942Y-92535747D01*
X151849514Y-92537543D01*
X151836942Y-92496234D01*
X151750731Y-92410023D01*
X151702238Y-92375898D01*
X151659133Y-92347161D01*
X151610639Y-92323813D01*
X151562146Y-92318425D01*
X151497488Y-92311240D01*
X151384337Y-92338181D01*
X151319679Y-92374102D01*
X151256817Y-92422596D01*
X150286950Y-93392463D01*
X150358792Y-93392463D01*
X150416265Y-93378095D01*
X150486311Y-93379891D01*
X150563542Y-93370911D01*
X150734166Y-93372707D01*
X150917364Y-93358338D01*
X151059252Y-93356542D01*
X151172403Y-93387075D01*
X151220896Y-93421200D01*
X151355600Y-93555904D01*
X151454383Y-93625950D01*
X151554962Y-93683423D01*
X151653745Y-93724733D01*
X151765100Y-93753469D01*
X151872863Y-93760654D01*
X151984218Y-93760654D01*
X152099165Y-93746285D01*
X152296731Y-93688812D01*
X152465560Y-93591825D01*
X152593079Y-93478674D01*
X152684678Y-93343970D01*
X152754724Y-93202082D01*
X152785257Y-93074562D01*
X152790645Y-92954227D01*
X152770888Y-92862628D01*
G36*
X141480616Y-92033655D02*
X141256110Y-91809148D01*
X140961558Y-92021082D01*
X140932821Y-91992345D01*
X140918452Y-91992345D01*
X140904084Y-91977977D01*
X140889715Y-91977977D01*
X140868163Y-91970793D01*
X140855591Y-91958220D01*
X140841222Y-91958220D01*
X140826854Y-91943852D01*
X140812485Y-91943852D01*
X140790933Y-91936668D01*
X140776564Y-91936668D01*
X140762196Y-91922299D01*
X140747827Y-91922299D01*
X140726275Y-91915115D01*
X140711906Y-91915115D01*
X140656229Y-91561293D01*
X140338328Y-91570273D01*
X140273670Y-91915115D01*
X140259301Y-91915115D01*
X140239545Y-91924095D01*
X140232361Y-91931280D01*
X140212604Y-91936668D01*
X140198236Y-91936668D01*
X140176683Y-91943852D01*
X140169499Y-91951036D01*
X140147946Y-91958220D01*
X140133578Y-91958220D01*
X140119209Y-91972589D01*
X140097657Y-91979773D01*
X140090473Y-91986957D01*
X140068920Y-91994141D01*
X140063532Y-91999530D01*
X140041979Y-92006714D01*
X140027611Y-92021082D01*
X139736651Y-91816332D01*
X139512144Y-92040839D01*
X139718690Y-92330003D01*
X139711506Y-92337187D01*
X139704322Y-92358740D01*
X139689953Y-92373108D01*
X139689953Y-92387477D01*
X139675585Y-92401845D01*
X139668401Y-92423398D01*
X139661216Y-92430582D01*
X139654032Y-92452134D01*
X139654032Y-92466503D01*
X139641460Y-92479075D01*
X139641460Y-92493444D01*
X139634276Y-92514996D01*
X139634276Y-92529365D01*
X139619907Y-92543733D01*
X139618111Y-92556305D01*
X139610927Y-92577858D01*
X139266085Y-92642516D01*
X139264289Y-92953233D01*
X139610927Y-93016095D01*
X139610927Y-93030463D01*
X139625295Y-93044831D01*
X139625295Y-93059200D01*
X139632480Y-93080752D01*
X139632480Y-93095121D01*
X139646848Y-93109489D01*
X139646848Y-93123858D01*
X139654032Y-93145410D01*
X139661216Y-93152594D01*
X139675585Y-93192108D01*
X139682769Y-93199292D01*
X139689953Y-93220844D01*
X139697137Y-93228029D01*
X139704322Y-93249581D01*
X139718690Y-93263950D01*
X139512144Y-93553114D01*
X139736651Y-93777620D01*
X140027611Y-93572870D01*
X140034795Y-93580055D01*
X140056348Y-93587239D01*
X140070716Y-93601607D01*
X140085085Y-93601607D01*
X140099453Y-93615976D01*
X140113821Y-93615976D01*
X140131782Y-93623160D01*
X140146150Y-93637528D01*
X140160519Y-93637528D01*
X140174887Y-93651897D01*
X140189255Y-93651897D01*
X140210808Y-93659081D01*
X140225177Y-93659081D01*
X140246729Y-93666265D01*
X140253913Y-93673449D01*
X140275466Y-93680634D01*
X140331144Y-94020087D01*
X140649045Y-94025475D01*
X140713702Y-93680634D01*
X140720887Y-93673449D01*
X140733459Y-93671653D01*
X140740643Y-93664469D01*
X140755012Y-93664469D01*
X140762196Y-93657285D01*
X140776564Y-93657285D01*
X140783748Y-93650101D01*
X140798117Y-93650101D01*
X140805301Y-93642916D01*
X140817873Y-93644712D01*
X140825058Y-93637528D01*
X140839426Y-93637528D01*
X140853794Y-93623160D01*
X140868163Y-93623160D01*
X140629288Y-93100509D01*
X140600551Y-93114877D01*
X140557446Y-93129246D01*
X140528709Y-93129246D01*
X140508953Y-93134634D01*
X140480216Y-93134634D01*
X140458663Y-93127450D01*
X140429926Y-93127450D01*
X140388617Y-93114877D01*
X140359880Y-93100509D01*
X140316775Y-93086141D01*
X140295223Y-93064588D01*
X140266486Y-93050220D01*
X140226973Y-93010706D01*
X140169499Y-92895759D01*
X140156927Y-92825713D01*
X140156927Y-92796976D01*
X140162315Y-92762851D01*
X140162315Y-92734115D01*
X140169499Y-92698193D01*
X140183867Y-92669457D01*
X140192848Y-92635332D01*
X140214400Y-92613779D01*
X140234157Y-92579654D01*
X140282650Y-92531161D01*
X140311387Y-92516792D01*
X140332940Y-92495240D01*
X140365269Y-92488055D01*
X140394005Y-92473687D01*
X140465847Y-92459319D01*
X140523321Y-92459319D01*
X140591571Y-92473687D01*
X140620308Y-92488055D01*
X140656229Y-92495240D01*
X140677781Y-92516792D01*
X140706518Y-92531161D01*
X140767584Y-92592226D01*
X140781952Y-92620963D01*
X140796321Y-92635332D01*
X140803505Y-92656884D01*
X140817873Y-92685621D01*
X140823262Y-92705378D01*
X140823262Y-92734115D01*
X140830446Y-92755667D01*
X140832242Y-92811345D01*
X140825058Y-92832897D01*
X140825058Y-92861634D01*
X140803505Y-92926292D01*
X141326156Y-93165167D01*
X141318972Y-93157983D01*
X141333340Y-93143614D01*
X141333340Y-93129246D01*
X141340524Y-93122062D01*
X141340524Y-93107693D01*
X141347709Y-93100509D01*
X141347709Y-93086141D01*
X141362077Y-93071772D01*
X141360281Y-93059200D01*
X141367465Y-93052016D01*
X141369261Y-93025075D01*
X141376445Y-93017891D01*
X141721287Y-92953233D01*
X141723083Y-92628147D01*
X141376445Y-92579654D01*
X141369261Y-92558101D01*
X141369261Y-92543733D01*
X141362077Y-92522180D01*
X141354893Y-92514996D01*
X141347709Y-92493444D01*
X141347709Y-92479075D01*
X141340524Y-92457523D01*
X141333340Y-92450338D01*
X141320768Y-92409029D01*
X141313584Y-92401845D01*
X141306399Y-92380292D01*
X141299215Y-92373108D01*
X141292031Y-92351556D01*
X141277663Y-92337187D01*
X141277663Y-92322819D01*
X141480616Y-92033655D01*
G37*
X141480616Y-92033655D02*
X141256110Y-91809148D01*
X140961558Y-92021082D01*
X140932821Y-91992345D01*
X140918452Y-91992345D01*
X140904084Y-91977977D01*
X140889715Y-91977977D01*
X140868163Y-91970793D01*
X140855591Y-91958220D01*
X140841222Y-91958220D01*
X140826854Y-91943852D01*
X140812485Y-91943852D01*
X140790933Y-91936668D01*
X140776564Y-91936668D01*
X140762196Y-91922299D01*
X140747827Y-91922299D01*
X140726275Y-91915115D01*
X140711906Y-91915115D01*
X140656229Y-91561293D01*
X140338328Y-91570273D01*
X140273670Y-91915115D01*
X140259301Y-91915115D01*
X140239545Y-91924095D01*
X140232361Y-91931280D01*
X140212604Y-91936668D01*
X140198236Y-91936668D01*
X140176683Y-91943852D01*
X140169499Y-91951036D01*
X140147946Y-91958220D01*
X140133578Y-91958220D01*
X140119209Y-91972589D01*
X140097657Y-91979773D01*
X140090473Y-91986957D01*
X140068920Y-91994141D01*
X140063532Y-91999530D01*
X140041979Y-92006714D01*
X140027611Y-92021082D01*
X139736651Y-91816332D01*
X139512144Y-92040839D01*
X139718690Y-92330003D01*
X139711506Y-92337187D01*
X139704322Y-92358740D01*
X139689953Y-92373108D01*
X139689953Y-92387477D01*
X139675585Y-92401845D01*
X139668401Y-92423398D01*
X139661216Y-92430582D01*
X139654032Y-92452134D01*
X139654032Y-92466503D01*
X139641460Y-92479075D01*
X139641460Y-92493444D01*
X139634276Y-92514996D01*
X139634276Y-92529365D01*
X139619907Y-92543733D01*
X139618111Y-92556305D01*
X139610927Y-92577858D01*
X139266085Y-92642516D01*
X139264289Y-92953233D01*
X139610927Y-93016095D01*
X139610927Y-93030463D01*
X139625295Y-93044831D01*
X139625295Y-93059200D01*
X139632480Y-93080752D01*
X139632480Y-93095121D01*
X139646848Y-93109489D01*
X139646848Y-93123858D01*
X139654032Y-93145410D01*
X139661216Y-93152594D01*
X139675585Y-93192108D01*
X139682769Y-93199292D01*
X139689953Y-93220844D01*
X139697137Y-93228029D01*
X139704322Y-93249581D01*
X139718690Y-93263950D01*
X139512144Y-93553114D01*
X139736651Y-93777620D01*
X140027611Y-93572870D01*
X140034795Y-93580055D01*
X140056348Y-93587239D01*
X140070716Y-93601607D01*
X140085085Y-93601607D01*
X140099453Y-93615976D01*
X140113821Y-93615976D01*
X140131782Y-93623160D01*
X140146150Y-93637528D01*
X140160519Y-93637528D01*
X140174887Y-93651897D01*
X140189255Y-93651897D01*
X140210808Y-93659081D01*
X140225177Y-93659081D01*
X140246729Y-93666265D01*
X140253913Y-93673449D01*
X140275466Y-93680634D01*
X140331144Y-94020087D01*
X140649045Y-94025475D01*
X140713702Y-93680634D01*
X140720887Y-93673449D01*
X140733459Y-93671653D01*
X140740643Y-93664469D01*
X140755012Y-93664469D01*
X140762196Y-93657285D01*
X140776564Y-93657285D01*
X140783748Y-93650101D01*
X140798117Y-93650101D01*
X140805301Y-93642916D01*
X140817873Y-93644712D01*
X140825058Y-93637528D01*
X140839426Y-93637528D01*
X140853794Y-93623160D01*
X140868163Y-93623160D01*
X140629288Y-93100509D01*
X140600551Y-93114877D01*
X140557446Y-93129246D01*
X140528709Y-93129246D01*
X140508953Y-93134634D01*
X140480216Y-93134634D01*
X140458663Y-93127450D01*
X140429926Y-93127450D01*
X140388617Y-93114877D01*
X140359880Y-93100509D01*
X140316775Y-93086141D01*
X140295223Y-93064588D01*
X140266486Y-93050220D01*
X140226973Y-93010706D01*
X140169499Y-92895759D01*
X140156927Y-92825713D01*
X140156927Y-92796976D01*
X140162315Y-92762851D01*
X140162315Y-92734115D01*
X140169499Y-92698193D01*
X140183867Y-92669457D01*
X140192848Y-92635332D01*
X140214400Y-92613779D01*
X140234157Y-92579654D01*
X140282650Y-92531161D01*
X140311387Y-92516792D01*
X140332940Y-92495240D01*
X140365269Y-92488055D01*
X140394005Y-92473687D01*
X140465847Y-92459319D01*
X140523321Y-92459319D01*
X140591571Y-92473687D01*
X140620308Y-92488055D01*
X140656229Y-92495240D01*
X140677781Y-92516792D01*
X140706518Y-92531161D01*
X140767584Y-92592226D01*
X140781952Y-92620963D01*
X140796321Y-92635332D01*
X140803505Y-92656884D01*
X140817873Y-92685621D01*
X140823262Y-92705378D01*
X140823262Y-92734115D01*
X140830446Y-92755667D01*
X140832242Y-92811345D01*
X140825058Y-92832897D01*
X140825058Y-92861634D01*
X140803505Y-92926292D01*
X141326156Y-93165167D01*
X141318972Y-93157983D01*
X141333340Y-93143614D01*
X141333340Y-93129246D01*
X141340524Y-93122062D01*
X141340524Y-93107693D01*
X141347709Y-93100509D01*
X141347709Y-93086141D01*
X141362077Y-93071772D01*
X141360281Y-93059200D01*
X141367465Y-93052016D01*
X141369261Y-93025075D01*
X141376445Y-93017891D01*
X141721287Y-92953233D01*
X141723083Y-92628147D01*
X141376445Y-92579654D01*
X141369261Y-92558101D01*
X141369261Y-92543733D01*
X141362077Y-92522180D01*
X141354893Y-92514996D01*
X141347709Y-92493444D01*
X141347709Y-92479075D01*
X141340524Y-92457523D01*
X141333340Y-92450338D01*
X141320768Y-92409029D01*
X141313584Y-92401845D01*
X141306399Y-92380292D01*
X141299215Y-92373108D01*
X141292031Y-92351556D01*
X141277663Y-92337187D01*
X141277663Y-92322819D01*
X141480616Y-92033655D01*
D15*
X145724880Y-102153720D02*
X145724880Y-101554280D01*
X145724880Y-101554280D02*
X146121120Y-101554280D01*
X146121120Y-102153720D02*
X146121120Y-101554280D01*
X145724880Y-102153720D02*
X146121120Y-102153720D01*
X142194280Y-98226880D02*
X142793720Y-98226880D01*
X142793720Y-98226880D02*
X142793720Y-98623120D01*
X142194280Y-98623120D02*
X142793720Y-98623120D01*
X142194280Y-98226880D02*
X142194280Y-98623120D01*
X146121120Y-94696280D02*
X146121120Y-95295720D01*
X146121120Y-95295720D02*
X145724880Y-95295720D01*
X145724880Y-94696280D02*
X145724880Y-95295720D01*
X146121120Y-94696280D02*
X145724880Y-94696280D01*
X149651720Y-98623120D02*
X149052280Y-98623120D01*
X149052280Y-98623120D02*
X149052280Y-98226880D01*
X149651720Y-98226880D02*
X149052280Y-98226880D01*
X149651720Y-98623120D02*
X149651720Y-98226880D01*
M02*
