G04 #@! TF.GenerationSoftware,KiCad,Pcbnew,no-vcs-found-5013ea2~58~ubuntu16.04.1*
G04 #@! TF.CreationDate,2017-05-24T10:35:15-06:00*
G04 #@! TF.ProjectId,HiBeam_4-pack_v02,48694265616D5F342D7061636B5F7630,rev?*
G04 #@! TF.FileFunction,Copper,L2,Bot,Signal*
G04 #@! TF.FilePolarity,Positive*
%FSLAX46Y46*%
G04 Gerber Fmt 4.6, Leading zero omitted, Abs format (unit mm)*
G04 Created by KiCad (PCBNEW no-vcs-found-5013ea2~58~ubuntu16.04.1) date Wed May 24 10:35:15 2017*
%MOMM*%
%LPD*%
G01*
G04 APERTURE LIST*
%ADD10C,0.100000*%
%ADD11C,0.203200*%
%ADD12R,2.000000X2.000000*%
%ADD13C,2.000000*%
%ADD14C,0.600000*%
%ADD15C,1.016000*%
%ADD16C,0.609600*%
%ADD17C,0.254000*%
G04 APERTURE END LIST*
D10*
D11*
X136387114Y-99558323D02*
X135709780Y-99316419D01*
X136387114Y-99074514D01*
X136725780Y-98493942D02*
X136725780Y-98397180D01*
X136677400Y-98300419D01*
X136629019Y-98252038D01*
X136532257Y-98203657D01*
X136338733Y-98155276D01*
X136096828Y-98155276D01*
X135903304Y-98203657D01*
X135806542Y-98252038D01*
X135758161Y-98300419D01*
X135709780Y-98397180D01*
X135709780Y-98493942D01*
X135758161Y-98590704D01*
X135806542Y-98639085D01*
X135903304Y-98687466D01*
X136096828Y-98735847D01*
X136338733Y-98735847D01*
X136532257Y-98687466D01*
X136629019Y-98639085D01*
X136677400Y-98590704D01*
X136725780Y-98493942D01*
X136629019Y-97768228D02*
X136677400Y-97719847D01*
X136725780Y-97623085D01*
X136725780Y-97381180D01*
X136677400Y-97284419D01*
X136629019Y-97236038D01*
X136532257Y-97187657D01*
X136435495Y-97187657D01*
X136290352Y-97236038D01*
X135709780Y-97816609D01*
X135709780Y-97187657D01*
D12*
X146558000Y-106680000D03*
X155244800Y-98399600D03*
X152730200Y-98399600D03*
D13*
X150749000Y-103251000D03*
D10*
G36*
X150749000Y-104665214D02*
X149334786Y-103251000D01*
X150749000Y-101836786D01*
X152163214Y-103251000D01*
X150749000Y-104665214D01*
X150749000Y-104665214D01*
G37*
D13*
X152527000Y-105029000D03*
D10*
G36*
X152527000Y-106443214D02*
X151112786Y-105029000D01*
X152527000Y-103614786D01*
X153941214Y-105029000D01*
X152527000Y-106443214D01*
X152527000Y-106443214D01*
G37*
D12*
X146532600Y-103454200D03*
X144145000Y-106680000D03*
X144119600Y-103454200D03*
D14*
X146558000Y-106680000D03*
X149352000Y-94615000D03*
X142240000Y-94996000D03*
X149733000Y-101600000D03*
X145973800Y-91998800D03*
X139446000Y-98425000D03*
X146532600Y-103454200D03*
X147929600Y-101523800D03*
X149021800Y-96418400D03*
X143967200Y-95300800D03*
X142798800Y-100406200D03*
X150723600Y-103301800D03*
X152527000Y-105029000D03*
X152730200Y-98399600D03*
X155244800Y-98425000D03*
D15*
X144145000Y-106680000D02*
X142722600Y-106680000D01*
X140970000Y-102743000D02*
X141351000Y-103124000D01*
X142240000Y-94996000D02*
X140970000Y-96266000D01*
X140970000Y-96266000D02*
X140970000Y-102743000D01*
X142138400Y-103911400D02*
X141351000Y-103124000D01*
X142138400Y-106095800D02*
X142138400Y-103911400D01*
X142722600Y-106680000D02*
X142138400Y-106095800D01*
X146558000Y-106680000D02*
X144145000Y-106680000D01*
X148437600Y-106273600D02*
X148031200Y-106680000D01*
X148031200Y-106680000D02*
X146558000Y-106680000D01*
X149733000Y-101600000D02*
X148437600Y-102895400D01*
X148437600Y-102895400D02*
X148437600Y-106273600D01*
X142240000Y-94996000D02*
X143230600Y-94005400D01*
X143230600Y-94005400D02*
X143433800Y-93802200D01*
X143433800Y-93802200D02*
X148539200Y-93802200D01*
X148539200Y-93802200D02*
X149352000Y-94615000D01*
X149352000Y-94615000D02*
X150495000Y-95758000D01*
X150495000Y-100838000D02*
X149733000Y-101600000D01*
X150495000Y-95758000D02*
X150495000Y-100838000D01*
X149352000Y-94615000D02*
X149352000Y-94615000D01*
X142240000Y-94996000D02*
X142240000Y-94996000D01*
X144119600Y-103454200D02*
X146532600Y-103454200D01*
X144119600Y-103454200D02*
X144119600Y-101600000D01*
X144119600Y-101600000D02*
X144018000Y-101600000D01*
X144068800Y-103454200D02*
X144018000Y-103403400D01*
X146532600Y-103454200D02*
X146583400Y-103403400D01*
X146583400Y-103403400D02*
X146583400Y-101600000D01*
X147916900Y-101511100D02*
X147828000Y-101600000D01*
X147929600Y-101523800D02*
X147916900Y-101511100D01*
X149009100Y-96431100D02*
X149098000Y-96520000D01*
X149021800Y-96418400D02*
X149009100Y-96431100D01*
X143967200Y-95300800D02*
X144018000Y-95250000D01*
D16*
X142798800Y-100406200D02*
X142811500Y-100393500D01*
X142811500Y-100393500D02*
X142748000Y-100330000D01*
D15*
X143383000Y-100965000D02*
X142748000Y-100330000D01*
X142748000Y-100330000D02*
X142748000Y-96520000D01*
X142748000Y-96520000D02*
X144018000Y-95250000D01*
X144018000Y-95250000D02*
X147828000Y-95250000D01*
X147828000Y-95250000D02*
X149098000Y-96520000D01*
X149098000Y-96520000D02*
X149098000Y-100330000D01*
X149098000Y-100330000D02*
X147828000Y-101600000D01*
X147828000Y-101600000D02*
X146583400Y-101600000D01*
X146583400Y-101600000D02*
X145923000Y-101600000D01*
X145923000Y-101600000D02*
X144018000Y-101600000D01*
X144018000Y-101600000D02*
X143383000Y-100965000D01*
D17*
X150723600Y-103301800D02*
X150749000Y-103276400D01*
X150749000Y-103276400D02*
X150749000Y-103251000D01*
X155244800Y-98425000D02*
X155244800Y-98399600D01*
G36*
X147985187Y-88378809D02*
X149897228Y-88970685D01*
X151657892Y-89922673D01*
X153200116Y-91198511D01*
X154465157Y-92749604D01*
X155404830Y-94516872D01*
X155983343Y-96432999D01*
X156028068Y-96889143D01*
X154244800Y-96889143D01*
X154145215Y-96898951D01*
X154049457Y-96927999D01*
X153987500Y-96961116D01*
X153925543Y-96927999D01*
X153829785Y-96898951D01*
X153730200Y-96889143D01*
X151730200Y-96889143D01*
X151630615Y-96898951D01*
X151534857Y-96927999D01*
X151511000Y-96940751D01*
X151511000Y-95758000D01*
X151501841Y-95664593D01*
X151493662Y-95571105D01*
X151492171Y-95565974D01*
X151491650Y-95560658D01*
X151464531Y-95470834D01*
X151438342Y-95380690D01*
X151435883Y-95375946D01*
X151434339Y-95370832D01*
X151390279Y-95287967D01*
X151347089Y-95204646D01*
X151343756Y-95200471D01*
X151341248Y-95195754D01*
X151281939Y-95123034D01*
X151223381Y-95049680D01*
X151216048Y-95042243D01*
X151215924Y-95042092D01*
X151215784Y-95041976D01*
X151213420Y-95039579D01*
X150070492Y-93896652D01*
X150070421Y-93896580D01*
X149257620Y-93083780D01*
X149185114Y-93024223D01*
X149113206Y-92963885D01*
X149108525Y-92961311D01*
X149104396Y-92957920D01*
X149021688Y-92913572D01*
X148939445Y-92868358D01*
X148934352Y-92866742D01*
X148929644Y-92864218D01*
X148839873Y-92836772D01*
X148750438Y-92808402D01*
X148745132Y-92807807D01*
X148740020Y-92806244D01*
X148646619Y-92796757D01*
X148553386Y-92786299D01*
X148542945Y-92786226D01*
X148542747Y-92786206D01*
X148542562Y-92786223D01*
X148539200Y-92786200D01*
X143433800Y-92786200D01*
X143340393Y-92795359D01*
X143246905Y-92803538D01*
X143241774Y-92805029D01*
X143236458Y-92805550D01*
X143146634Y-92832669D01*
X143056490Y-92858858D01*
X143051746Y-92861317D01*
X143046632Y-92862861D01*
X142963767Y-92906921D01*
X142880446Y-92950111D01*
X142876271Y-92953444D01*
X142871554Y-92955952D01*
X142798834Y-93015261D01*
X142725480Y-93073819D01*
X142718043Y-93081152D01*
X142717892Y-93081276D01*
X142717776Y-93081416D01*
X142715379Y-93083780D01*
X142512252Y-93286908D01*
X142512180Y-93286979D01*
X141521651Y-94277509D01*
X141521579Y-94277580D01*
X140251580Y-95547580D01*
X140192023Y-95620086D01*
X140131685Y-95691994D01*
X140129111Y-95696675D01*
X140125720Y-95700804D01*
X140081372Y-95783512D01*
X140036158Y-95865755D01*
X140034542Y-95870848D01*
X140032018Y-95875556D01*
X140004572Y-95965327D01*
X139976202Y-96054762D01*
X139975607Y-96060068D01*
X139974044Y-96065180D01*
X139964557Y-96158581D01*
X139954099Y-96251814D01*
X139954026Y-96262255D01*
X139954006Y-96262453D01*
X139954023Y-96262638D01*
X139954000Y-96266000D01*
X139954000Y-102743000D01*
X139963159Y-102836407D01*
X139971338Y-102929895D01*
X139972829Y-102935026D01*
X139973350Y-102940342D01*
X140000469Y-103030166D01*
X140026658Y-103120310D01*
X140029117Y-103125054D01*
X140030661Y-103130168D01*
X140074732Y-103213053D01*
X140117911Y-103296353D01*
X140121242Y-103300526D01*
X140123752Y-103305246D01*
X140183074Y-103377982D01*
X140241618Y-103451319D01*
X140248949Y-103458752D01*
X140249076Y-103458908D01*
X140249220Y-103459027D01*
X140251580Y-103461420D01*
X140632579Y-103842420D01*
X140632585Y-103842425D01*
X141122400Y-104332241D01*
X141122400Y-106095800D01*
X141131559Y-106189207D01*
X141139738Y-106282695D01*
X141141229Y-106287826D01*
X141141750Y-106293142D01*
X141168869Y-106382966D01*
X141195058Y-106473110D01*
X141197517Y-106477854D01*
X141199061Y-106482968D01*
X141243132Y-106565853D01*
X141286311Y-106649153D01*
X141289642Y-106653326D01*
X141292152Y-106658046D01*
X141351474Y-106730782D01*
X141410018Y-106804119D01*
X141417349Y-106811552D01*
X141417476Y-106811708D01*
X141417620Y-106811827D01*
X141419980Y-106814220D01*
X142004180Y-107398421D01*
X142076716Y-107458002D01*
X142148594Y-107518315D01*
X142153275Y-107520888D01*
X142157404Y-107524280D01*
X142240112Y-107568628D01*
X142322355Y-107613842D01*
X142327448Y-107615458D01*
X142332156Y-107617982D01*
X142421914Y-107645424D01*
X142511362Y-107673798D01*
X142516670Y-107674393D01*
X142521781Y-107675956D01*
X142615176Y-107685443D01*
X142635301Y-107687700D01*
X142644351Y-107779585D01*
X142673399Y-107875343D01*
X142720571Y-107963595D01*
X142784052Y-108040948D01*
X142861405Y-108104429D01*
X142949657Y-108151601D01*
X143045415Y-108180649D01*
X143145000Y-108190457D01*
X145145000Y-108190457D01*
X145244585Y-108180649D01*
X145340343Y-108151601D01*
X145351500Y-108145637D01*
X145362657Y-108151601D01*
X145458415Y-108180649D01*
X145558000Y-108190457D01*
X147558000Y-108190457D01*
X147657585Y-108180649D01*
X147753343Y-108151601D01*
X147841595Y-108104429D01*
X147918948Y-108040948D01*
X147982429Y-107963595D01*
X148029601Y-107875343D01*
X148058649Y-107779585D01*
X148067229Y-107692467D01*
X148124607Y-107686841D01*
X148218095Y-107678662D01*
X148223226Y-107677171D01*
X148228542Y-107676650D01*
X148318366Y-107649531D01*
X148408510Y-107623342D01*
X148413254Y-107620883D01*
X148418368Y-107619339D01*
X148501253Y-107575268D01*
X148584553Y-107532089D01*
X148588726Y-107528758D01*
X148593446Y-107526248D01*
X148666182Y-107466926D01*
X148739519Y-107408382D01*
X148746952Y-107401051D01*
X148747108Y-107400924D01*
X148747227Y-107400780D01*
X148749620Y-107398420D01*
X149156020Y-106992021D01*
X149215598Y-106919490D01*
X149275915Y-106847606D01*
X149278488Y-106842925D01*
X149281880Y-106838796D01*
X149326228Y-106756088D01*
X149371442Y-106673845D01*
X149373058Y-106668752D01*
X149375582Y-106664044D01*
X149403015Y-106574314D01*
X149431398Y-106484838D01*
X149431994Y-106479527D01*
X149433555Y-106474420D01*
X149443033Y-106381114D01*
X149453501Y-106287786D01*
X149453574Y-106277335D01*
X149453593Y-106277147D01*
X149453576Y-106276972D01*
X149453600Y-106273600D01*
X149453600Y-104091710D01*
X150388052Y-105026162D01*
X150465405Y-105089643D01*
X150553657Y-105136815D01*
X150620813Y-105157187D01*
X150641185Y-105224343D01*
X150688357Y-105312595D01*
X150751838Y-105389948D01*
X151995241Y-106633351D01*
X151418257Y-107084140D01*
X149631699Y-107986596D01*
X147703877Y-108524853D01*
X145708222Y-108678411D01*
X143720747Y-108441419D01*
X141817156Y-107822905D01*
X140069956Y-106846427D01*
X138545696Y-105549180D01*
X137302435Y-103980575D01*
X136387528Y-102200360D01*
X135846355Y-100313067D01*
X137459720Y-100313067D01*
X137459720Y-96384534D01*
X135881153Y-96384534D01*
X135891451Y-96292728D01*
X136496660Y-94384866D01*
X137460917Y-92630891D01*
X138747491Y-91097611D01*
X140307378Y-89843430D01*
X142081162Y-88916118D01*
X144001281Y-88350996D01*
X145994597Y-88169590D01*
X147985187Y-88378809D01*
X147985187Y-88378809D01*
G37*
X147985187Y-88378809D02*
X149897228Y-88970685D01*
X151657892Y-89922673D01*
X153200116Y-91198511D01*
X154465157Y-92749604D01*
X155404830Y-94516872D01*
X155983343Y-96432999D01*
X156028068Y-96889143D01*
X154244800Y-96889143D01*
X154145215Y-96898951D01*
X154049457Y-96927999D01*
X153987500Y-96961116D01*
X153925543Y-96927999D01*
X153829785Y-96898951D01*
X153730200Y-96889143D01*
X151730200Y-96889143D01*
X151630615Y-96898951D01*
X151534857Y-96927999D01*
X151511000Y-96940751D01*
X151511000Y-95758000D01*
X151501841Y-95664593D01*
X151493662Y-95571105D01*
X151492171Y-95565974D01*
X151491650Y-95560658D01*
X151464531Y-95470834D01*
X151438342Y-95380690D01*
X151435883Y-95375946D01*
X151434339Y-95370832D01*
X151390279Y-95287967D01*
X151347089Y-95204646D01*
X151343756Y-95200471D01*
X151341248Y-95195754D01*
X151281939Y-95123034D01*
X151223381Y-95049680D01*
X151216048Y-95042243D01*
X151215924Y-95042092D01*
X151215784Y-95041976D01*
X151213420Y-95039579D01*
X150070492Y-93896652D01*
X150070421Y-93896580D01*
X149257620Y-93083780D01*
X149185114Y-93024223D01*
X149113206Y-92963885D01*
X149108525Y-92961311D01*
X149104396Y-92957920D01*
X149021688Y-92913572D01*
X148939445Y-92868358D01*
X148934352Y-92866742D01*
X148929644Y-92864218D01*
X148839873Y-92836772D01*
X148750438Y-92808402D01*
X148745132Y-92807807D01*
X148740020Y-92806244D01*
X148646619Y-92796757D01*
X148553386Y-92786299D01*
X148542945Y-92786226D01*
X148542747Y-92786206D01*
X148542562Y-92786223D01*
X148539200Y-92786200D01*
X143433800Y-92786200D01*
X143340393Y-92795359D01*
X143246905Y-92803538D01*
X143241774Y-92805029D01*
X143236458Y-92805550D01*
X143146634Y-92832669D01*
X143056490Y-92858858D01*
X143051746Y-92861317D01*
X143046632Y-92862861D01*
X142963767Y-92906921D01*
X142880446Y-92950111D01*
X142876271Y-92953444D01*
X142871554Y-92955952D01*
X142798834Y-93015261D01*
X142725480Y-93073819D01*
X142718043Y-93081152D01*
X142717892Y-93081276D01*
X142717776Y-93081416D01*
X142715379Y-93083780D01*
X142512252Y-93286908D01*
X142512180Y-93286979D01*
X141521651Y-94277509D01*
X141521579Y-94277580D01*
X140251580Y-95547580D01*
X140192023Y-95620086D01*
X140131685Y-95691994D01*
X140129111Y-95696675D01*
X140125720Y-95700804D01*
X140081372Y-95783512D01*
X140036158Y-95865755D01*
X140034542Y-95870848D01*
X140032018Y-95875556D01*
X140004572Y-95965327D01*
X139976202Y-96054762D01*
X139975607Y-96060068D01*
X139974044Y-96065180D01*
X139964557Y-96158581D01*
X139954099Y-96251814D01*
X139954026Y-96262255D01*
X139954006Y-96262453D01*
X139954023Y-96262638D01*
X139954000Y-96266000D01*
X139954000Y-102743000D01*
X139963159Y-102836407D01*
X139971338Y-102929895D01*
X139972829Y-102935026D01*
X139973350Y-102940342D01*
X140000469Y-103030166D01*
X140026658Y-103120310D01*
X140029117Y-103125054D01*
X140030661Y-103130168D01*
X140074732Y-103213053D01*
X140117911Y-103296353D01*
X140121242Y-103300526D01*
X140123752Y-103305246D01*
X140183074Y-103377982D01*
X140241618Y-103451319D01*
X140248949Y-103458752D01*
X140249076Y-103458908D01*
X140249220Y-103459027D01*
X140251580Y-103461420D01*
X140632579Y-103842420D01*
X140632585Y-103842425D01*
X141122400Y-104332241D01*
X141122400Y-106095800D01*
X141131559Y-106189207D01*
X141139738Y-106282695D01*
X141141229Y-106287826D01*
X141141750Y-106293142D01*
X141168869Y-106382966D01*
X141195058Y-106473110D01*
X141197517Y-106477854D01*
X141199061Y-106482968D01*
X141243132Y-106565853D01*
X141286311Y-106649153D01*
X141289642Y-106653326D01*
X141292152Y-106658046D01*
X141351474Y-106730782D01*
X141410018Y-106804119D01*
X141417349Y-106811552D01*
X141417476Y-106811708D01*
X141417620Y-106811827D01*
X141419980Y-106814220D01*
X142004180Y-107398421D01*
X142076716Y-107458002D01*
X142148594Y-107518315D01*
X142153275Y-107520888D01*
X142157404Y-107524280D01*
X142240112Y-107568628D01*
X142322355Y-107613842D01*
X142327448Y-107615458D01*
X142332156Y-107617982D01*
X142421914Y-107645424D01*
X142511362Y-107673798D01*
X142516670Y-107674393D01*
X142521781Y-107675956D01*
X142615176Y-107685443D01*
X142635301Y-107687700D01*
X142644351Y-107779585D01*
X142673399Y-107875343D01*
X142720571Y-107963595D01*
X142784052Y-108040948D01*
X142861405Y-108104429D01*
X142949657Y-108151601D01*
X143045415Y-108180649D01*
X143145000Y-108190457D01*
X145145000Y-108190457D01*
X145244585Y-108180649D01*
X145340343Y-108151601D01*
X145351500Y-108145637D01*
X145362657Y-108151601D01*
X145458415Y-108180649D01*
X145558000Y-108190457D01*
X147558000Y-108190457D01*
X147657585Y-108180649D01*
X147753343Y-108151601D01*
X147841595Y-108104429D01*
X147918948Y-108040948D01*
X147982429Y-107963595D01*
X148029601Y-107875343D01*
X148058649Y-107779585D01*
X148067229Y-107692467D01*
X148124607Y-107686841D01*
X148218095Y-107678662D01*
X148223226Y-107677171D01*
X148228542Y-107676650D01*
X148318366Y-107649531D01*
X148408510Y-107623342D01*
X148413254Y-107620883D01*
X148418368Y-107619339D01*
X148501253Y-107575268D01*
X148584553Y-107532089D01*
X148588726Y-107528758D01*
X148593446Y-107526248D01*
X148666182Y-107466926D01*
X148739519Y-107408382D01*
X148746952Y-107401051D01*
X148747108Y-107400924D01*
X148747227Y-107400780D01*
X148749620Y-107398420D01*
X149156020Y-106992021D01*
X149215598Y-106919490D01*
X149275915Y-106847606D01*
X149278488Y-106842925D01*
X149281880Y-106838796D01*
X149326228Y-106756088D01*
X149371442Y-106673845D01*
X149373058Y-106668752D01*
X149375582Y-106664044D01*
X149403015Y-106574314D01*
X149431398Y-106484838D01*
X149431994Y-106479527D01*
X149433555Y-106474420D01*
X149443033Y-106381114D01*
X149453501Y-106287786D01*
X149453574Y-106277335D01*
X149453593Y-106277147D01*
X149453576Y-106276972D01*
X149453600Y-106273600D01*
X149453600Y-104091710D01*
X150388052Y-105026162D01*
X150465405Y-105089643D01*
X150553657Y-105136815D01*
X150620813Y-105157187D01*
X150641185Y-105224343D01*
X150688357Y-105312595D01*
X150751838Y-105389948D01*
X151995241Y-106633351D01*
X151418257Y-107084140D01*
X149631699Y-107986596D01*
X147703877Y-108524853D01*
X145708222Y-108678411D01*
X143720747Y-108441419D01*
X141817156Y-107822905D01*
X140069956Y-106846427D01*
X138545696Y-105549180D01*
X137302435Y-103980575D01*
X136387528Y-102200360D01*
X135846355Y-100313067D01*
X137459720Y-100313067D01*
X137459720Y-96384534D01*
X135881153Y-96384534D01*
X135891451Y-96292728D01*
X136496660Y-94384866D01*
X137460917Y-92630891D01*
X138747491Y-91097611D01*
X140307378Y-89843430D01*
X142081162Y-88916118D01*
X144001281Y-88350996D01*
X145994597Y-88169590D01*
X147985187Y-88378809D01*
G36*
X148633580Y-95333421D02*
X148633586Y-95333426D01*
X149479000Y-96178841D01*
X149479000Y-100417159D01*
X149014651Y-100881509D01*
X149014579Y-100881580D01*
X147936075Y-101960085D01*
X147833385Y-101891470D01*
X147717823Y-101843603D01*
X147595142Y-101819200D01*
X146818350Y-101819200D01*
X146659600Y-101977950D01*
X146659600Y-103327200D01*
X146679600Y-103327200D01*
X146679600Y-103581200D01*
X146659600Y-103581200D01*
X146659600Y-104930450D01*
X146818350Y-105089200D01*
X147421600Y-105089200D01*
X147421600Y-105169543D01*
X145558000Y-105169543D01*
X145458415Y-105179351D01*
X145362657Y-105208399D01*
X145351500Y-105214363D01*
X145340343Y-105208399D01*
X145244585Y-105179351D01*
X145145000Y-105169543D01*
X143154400Y-105169543D01*
X143154400Y-105089200D01*
X143833850Y-105089200D01*
X143992600Y-104930450D01*
X143992600Y-103581200D01*
X144246600Y-103581200D01*
X144246600Y-104930450D01*
X144405350Y-105089200D01*
X145182142Y-105089200D01*
X145304823Y-105064797D01*
X145326100Y-105055984D01*
X145347377Y-105064797D01*
X145470058Y-105089200D01*
X146246850Y-105089200D01*
X146405600Y-104930450D01*
X146405600Y-103581200D01*
X144246600Y-103581200D01*
X143992600Y-103581200D01*
X143972600Y-103581200D01*
X143972600Y-103327200D01*
X143992600Y-103327200D01*
X143992600Y-101977950D01*
X144246600Y-101977950D01*
X144246600Y-103327200D01*
X146405600Y-103327200D01*
X146405600Y-101977950D01*
X146246850Y-101819200D01*
X145470058Y-101819200D01*
X145347377Y-101843603D01*
X145326100Y-101852416D01*
X145304823Y-101843603D01*
X145182142Y-101819200D01*
X144405350Y-101819200D01*
X144246600Y-101977950D01*
X143992600Y-101977950D01*
X143833850Y-101819200D01*
X143057058Y-101819200D01*
X142934377Y-101843603D01*
X142818815Y-101891470D01*
X142714811Y-101960963D01*
X142626363Y-102049411D01*
X142556870Y-102153415D01*
X142509003Y-102268977D01*
X142484600Y-102391658D01*
X142484600Y-102820759D01*
X142069491Y-102405651D01*
X142069420Y-102405579D01*
X141986000Y-102322159D01*
X141986000Y-98590517D01*
X143951912Y-98590517D01*
X144021600Y-98970218D01*
X144163712Y-99329151D01*
X144372835Y-99653646D01*
X144641003Y-99931342D01*
X144958001Y-100151662D01*
X145311757Y-100306214D01*
X145688794Y-100389111D01*
X146074752Y-100397195D01*
X146454930Y-100330160D01*
X146814847Y-100190557D01*
X147140794Y-99983705D01*
X147420355Y-99717482D01*
X147642883Y-99402029D01*
X147799900Y-99049362D01*
X147885428Y-98672912D01*
X147891585Y-98231979D01*
X147816602Y-97853288D01*
X147669492Y-97496374D01*
X147455860Y-97174830D01*
X147183841Y-96900906D01*
X146863797Y-96685033D01*
X146507918Y-96535436D01*
X146129760Y-96457811D01*
X145743726Y-96455116D01*
X145364522Y-96527453D01*
X145006589Y-96672067D01*
X144683562Y-96883450D01*
X144407745Y-97153550D01*
X144189643Y-97472079D01*
X144037565Y-97826905D01*
X143957302Y-98204512D01*
X143951912Y-98590517D01*
X141986000Y-98590517D01*
X141986000Y-96686840D01*
X142958420Y-95714421D01*
X142958425Y-95714415D01*
X143854641Y-94818200D01*
X148118360Y-94818200D01*
X148633580Y-95333421D01*
X148633580Y-95333421D01*
G37*
X148633580Y-95333421D02*
X148633586Y-95333426D01*
X149479000Y-96178841D01*
X149479000Y-100417159D01*
X149014651Y-100881509D01*
X149014579Y-100881580D01*
X147936075Y-101960085D01*
X147833385Y-101891470D01*
X147717823Y-101843603D01*
X147595142Y-101819200D01*
X146818350Y-101819200D01*
X146659600Y-101977950D01*
X146659600Y-103327200D01*
X146679600Y-103327200D01*
X146679600Y-103581200D01*
X146659600Y-103581200D01*
X146659600Y-104930450D01*
X146818350Y-105089200D01*
X147421600Y-105089200D01*
X147421600Y-105169543D01*
X145558000Y-105169543D01*
X145458415Y-105179351D01*
X145362657Y-105208399D01*
X145351500Y-105214363D01*
X145340343Y-105208399D01*
X145244585Y-105179351D01*
X145145000Y-105169543D01*
X143154400Y-105169543D01*
X143154400Y-105089200D01*
X143833850Y-105089200D01*
X143992600Y-104930450D01*
X143992600Y-103581200D01*
X144246600Y-103581200D01*
X144246600Y-104930450D01*
X144405350Y-105089200D01*
X145182142Y-105089200D01*
X145304823Y-105064797D01*
X145326100Y-105055984D01*
X145347377Y-105064797D01*
X145470058Y-105089200D01*
X146246850Y-105089200D01*
X146405600Y-104930450D01*
X146405600Y-103581200D01*
X144246600Y-103581200D01*
X143992600Y-103581200D01*
X143972600Y-103581200D01*
X143972600Y-103327200D01*
X143992600Y-103327200D01*
X143992600Y-101977950D01*
X144246600Y-101977950D01*
X144246600Y-103327200D01*
X146405600Y-103327200D01*
X146405600Y-101977950D01*
X146246850Y-101819200D01*
X145470058Y-101819200D01*
X145347377Y-101843603D01*
X145326100Y-101852416D01*
X145304823Y-101843603D01*
X145182142Y-101819200D01*
X144405350Y-101819200D01*
X144246600Y-101977950D01*
X143992600Y-101977950D01*
X143833850Y-101819200D01*
X143057058Y-101819200D01*
X142934377Y-101843603D01*
X142818815Y-101891470D01*
X142714811Y-101960963D01*
X142626363Y-102049411D01*
X142556870Y-102153415D01*
X142509003Y-102268977D01*
X142484600Y-102391658D01*
X142484600Y-102820759D01*
X142069491Y-102405651D01*
X142069420Y-102405579D01*
X141986000Y-102322159D01*
X141986000Y-98590517D01*
X143951912Y-98590517D01*
X144021600Y-98970218D01*
X144163712Y-99329151D01*
X144372835Y-99653646D01*
X144641003Y-99931342D01*
X144958001Y-100151662D01*
X145311757Y-100306214D01*
X145688794Y-100389111D01*
X146074752Y-100397195D01*
X146454930Y-100330160D01*
X146814847Y-100190557D01*
X147140794Y-99983705D01*
X147420355Y-99717482D01*
X147642883Y-99402029D01*
X147799900Y-99049362D01*
X147885428Y-98672912D01*
X147891585Y-98231979D01*
X147816602Y-97853288D01*
X147669492Y-97496374D01*
X147455860Y-97174830D01*
X147183841Y-96900906D01*
X146863797Y-96685033D01*
X146507918Y-96535436D01*
X146129760Y-96457811D01*
X145743726Y-96455116D01*
X145364522Y-96527453D01*
X145006589Y-96672067D01*
X144683562Y-96883450D01*
X144407745Y-97153550D01*
X144189643Y-97472079D01*
X144037565Y-97826905D01*
X143957302Y-98204512D01*
X143951912Y-98590517D01*
X141986000Y-98590517D01*
X141986000Y-96686840D01*
X142958420Y-95714421D01*
X142958425Y-95714415D01*
X143854641Y-94818200D01*
X148118360Y-94818200D01*
X148633580Y-95333421D01*
M02*
